<svg xmlns="http://www.w3.org/2000/svg" width="42" height="42" viewBox="0 0 42 42" fill="none">
  <circle cx="21" cy="21" r="21" fill="#4468AE" fill-opacity="0.21"/>
  <path d="M28.8825 27.2309L21.2838 30.9428C21.1942 30.9805 21.0977 31 21.0002 31C20.9027 31 20.8062 30.9805 20.7165 30.9428L13.1175 27.2309C12.9628 27.155 12.9628 27.0305 13.1175 26.9543L14.9373 26.0671C15.027 26.0293 15.1237 26.0099 15.2213 26.0099C15.319 26.0099 15.4156 26.0293 15.5053 26.0671L20.7165 28.6095C20.8061 28.6474 20.9026 28.667 21.0002 28.667C21.0977 28.667 21.1943 28.6474 21.2838 28.6095L26.495 26.0671C26.5847 26.0293 26.6813 26.0099 26.7789 26.0099C26.8765 26.0099 26.973 26.0293 27.0627 26.0671L28.8825 26.9561C29.0392 27.0305 29.0392 27.155 28.8825 27.2309ZM28.8825 22.0501L27.0627 21.161C26.973 21.1232 26.8765 21.1038 26.7789 21.1038C26.6813 21.1038 26.5847 21.1232 26.495 21.161L21.2838 23.7064C21.1942 23.744 21.0977 23.7633 21.0002 23.7633C20.9027 23.7633 20.8062 23.744 20.7165 23.7064L15.5053 21.161C15.4156 21.1232 15.319 21.1038 15.2213 21.1038C15.1237 21.1038 15.027 21.1232 14.9373 21.161L13.1175 22.0501C12.9628 22.1259 12.9628 22.2508 13.1175 22.3274L20.7165 26.0386C20.8062 26.0763 20.9027 26.0958 21.0002 26.0958C21.0977 26.0958 21.1942 26.0763 21.2838 26.0386L28.8825 22.3274C29.0392 22.2508 29.0392 22.1263 28.8825 22.0501ZM13.1175 17.7348L20.7162 21.161C20.8985 21.2312 21.1011 21.2312 21.2835 21.161L28.8825 17.7348C29.0372 17.6642 29.0372 17.5492 28.8825 17.479L21.2835 14.0532C21.1013 13.9823 20.8983 13.9823 20.7162 14.0532L13.1175 17.479C12.9608 17.5492 12.9608 17.6642 13.1175 17.7348Z" fill="#4468AE"/>
</svg>