<svg width="16" height="13" viewBox="0 0 16 13" fill="none" xmlns="http://www.w3.org/2000/svg">
<path id="Vector" d="M8.38095 10.8333C8.38095 10.5878 8.41143 10.3494 8.44952 10.1111H1.52381V2.88889L7.61905 6.5L13.7143 2.88889V6.565C14.2629 6.65167 14.7733 6.83222 15.2381 7.085V1.44444C15.2381 0.65 14.5524 0 13.7143 0H1.52381C0.685714 0 0 0.65 0 1.44444V10.1111C0 10.9056 0.685714 11.5556 1.52381 11.5556H8.44952C8.41143 11.3172 8.38095 11.0789 8.38095 10.8333ZM13.7143 1.44444L7.61905 5.05556L1.52381 1.44444H13.7143ZM13.7143 13V11.5556H10.6667V10.1111H13.7143V8.66667L16 10.8333L13.7143 13Z" fill="#676767"/>
</svg>
