<svg xmlns="http://www.w3.org/2000/svg" width="33" height="33" viewBox="0 0 33 33" fill="none">
  <g clip-path="url(#clip0_693_4923)">
    <path d="M23.0628 0.0165145C22.9927 -0.0618605 20.4662 0.047452 18.2675 2.43376C16.0689 4.81802 16.4072 7.55289 16.4567 7.62302C16.5062 7.69314 19.5917 7.80245 21.5613 5.02839C23.531 2.25433 23.133 0.096952 23.0628 0.0165145ZM29.898 24.2158C29.799 24.0178 25.1027 21.6707 25.5399 17.158C25.9772 12.6431 28.9946 11.4056 29.042 11.2716C29.0895 11.1375 27.8107 9.6422 26.4557 8.88527C25.4607 8.3516 24.3596 8.04584 23.232 7.99014C23.0092 7.98395 22.2358 7.7942 20.6456 8.22939C19.5978 8.51608 17.2363 9.4442 16.5866 9.48133C15.9348 9.51845 13.9961 8.4047 11.9109 8.10977C10.5765 7.85195 9.16159 8.37995 8.14891 8.78627C7.13828 9.19052 5.21603 10.3414 3.87128 13.4001C2.52653 16.4567 3.22984 21.2995 3.73309 22.8051C4.23634 24.3086 5.02216 26.7733 6.35866 28.5718C7.54666 30.6013 9.12241 32.01 9.78034 32.4885C10.4383 32.967 12.2945 33.2846 13.5815 32.6267C14.6169 31.9915 16.4855 31.6264 17.2239 31.6532C17.9602 31.68 19.4122 31.9708 20.8993 32.7649C22.077 33.1712 23.1907 33.0021 24.3065 32.5483C25.4223 32.0925 27.0373 30.3641 28.9224 26.86C29.6381 25.2306 29.964 24.3499 29.898 24.2158Z" fill="black"/>
    <path d="M23.0628 0.0165145C22.9927 -0.0618605 20.4662 0.047452 18.2675 2.43376C16.0689 4.81802 16.4072 7.55289 16.4567 7.62302C16.5062 7.69314 19.5917 7.80245 21.5613 5.02839C23.531 2.25433 23.133 0.096952 23.0628 0.0165145ZM29.898 24.2158C29.799 24.0178 25.1027 21.6707 25.5399 17.158C25.9772 12.6431 28.9946 11.4056 29.042 11.2716C29.0895 11.1375 27.8107 9.6422 26.4557 8.88527C25.4607 8.3516 24.3596 8.04584 23.232 7.99014C23.0092 7.98395 22.2358 7.7942 20.6456 8.22939C19.5978 8.51608 17.2363 9.4442 16.5866 9.48133C15.9348 9.51845 13.9961 8.4047 11.9109 8.10977C10.5765 7.85195 9.16159 8.37995 8.14891 8.78627C7.13828 9.19052 5.21603 10.3414 3.87128 13.4001C2.52653 16.4567 3.22984 21.2995 3.73309 22.8051C4.23634 24.3086 5.02216 26.7733 6.35866 28.5718C7.54666 30.6013 9.12241 32.01 9.78034 32.4885C10.4383 32.967 12.2945 33.2846 13.5815 32.6267C14.6169 31.9915 16.4855 31.6264 17.2239 31.6532C17.9602 31.68 19.4122 31.9708 20.8993 32.7649C22.077 33.1712 23.1907 33.0021 24.3065 32.5483C25.4223 32.0925 27.0373 30.3641 28.9224 26.86C29.6381 25.2306 29.964 24.3499 29.898 24.2158Z" fill="black"/>
  </g>
  <defs>
    <clipPath id="clip0_693_4923">
      <rect width="33" height="33" fill="white"/>
    </clipPath>
  </defs>
</svg>