<svg width="28" height="24" viewBox="0 0 28 24" fill="none" xmlns="http://www.w3.org/2000/svg">
<path id="Vector" d="M15.2694 23.102L15.2699 23.1024C15.5184 23.3558 15.8574 23.5 16.2132 23.5C16.5689 23.5 16.908 23.3558 17.1565 23.1024L17.1567 23.1022L27.1145 12.9383L27.1147 12.938C27.3626 12.6847 27.5 12.3435 27.5 11.9898C27.5 11.6361 27.3626 11.2949 27.1147 11.0416L27.1145 11.0414L17.1567 0.877412L17.1506 0.871107L17.1442 0.865024C16.8927 0.625845 16.558 0.49395 16.2103 0.500213C15.8625 0.506476 15.5328 0.650312 15.29 0.898167C15.0475 1.1457 14.9103 1.47761 14.9043 1.82341C14.8983 2.1692 15.0239 2.50564 15.2575 2.76152L15.2635 2.76801L15.2696 2.77429L22.9772 10.6428L1.82981 10.6428C1.47377 10.6428 1.13445 10.7873 0.885887 11.041L1.24304 11.3909L0.885883 11.041C0.637665 11.2943 0.5 11.6358 0.5 11.9898C0.5 12.3438 0.637665 12.6853 0.885885 12.9386C1.13445 13.1923 1.47378 13.3368 1.82981 13.3368L22.9772 13.3368L15.2696 21.2053L15.2694 21.2055C15.0216 21.4588 14.8841 21.8001 14.8841 22.1538C14.8841 22.5074 15.0216 22.8487 15.2694 23.102Z" fill="white" stroke="white"/>
</svg>
