<svg width="26" height="22" viewBox="0 0 26 22" fill="none" xmlns="http://www.w3.org/2000/svg">
<path id="Vector" d="M14.9915 1.08221L23.5241 9.79293L24.3566 10.6428H23.1669L0.829809 10.6428C0.745686 10.6428 0.66288 10.6768 0.600204 10.7408C0.537186 10.8051 0.5 10.8945 0.5 10.9898C0.5 11.0851 0.537186 11.1745 0.600201 11.2388C0.66288 11.3028 0.745682 11.3368 0.829809 11.3368L23.1669 11.3368H24.3566L23.5241 12.1867L14.9842 20.9049C14.9212 20.9692 14.8841 21.0585 14.8841 21.1538C14.8841 21.2488 14.9211 21.338 14.9839 21.4023C15.0465 21.4661 15.1292 21.5 15.2132 21.5C15.2972 21.5 15.38 21.466 15.4427 21.4022L25.3999 11.2387C25.4 11.2386 25.4001 11.2385 25.4002 11.2384C25.463 11.1741 25.5 11.0849 25.5 10.9898C25.5 10.8947 25.463 10.8055 25.4002 10.7412L14.9915 1.08221ZM14.9915 1.08221C14.9348 1.0175 14.9026 0.931362 14.9041 0.840694C14.9057 0.747641 14.9427 0.660823 15.0043 0.597991C15.0655 0.535477 15.146 0.501531 15.2283 0.500051C15.3083 0.49861 15.3876 0.527971 15.45 0.584955L25.3999 10.741L14.9915 1.08221Z" fill="#BA68C8" stroke="#9600AF"/>
</svg>
