<svg width="44" height="44" viewBox="0 0 44 44" fill="none" xmlns="http://www.w3.org/2000/svg">
<g id="carbon:two-factor-authentication">
<path id="Vector" d="M15.125 31.8725L12.375 29.1211L10.4349 31.0599L15.125 35.75L23.375 27.5L21.4362 25.5613L15.125 31.8725ZM38.5 41.25H33V38.5H38.5V22H33V11C32.9982 9.54187 32.4181 8.14398 31.3871 7.11292C30.356 6.08187 28.9581 5.50182 27.5 5.5V2.75C29.6873 2.75255 31.7842 3.62256 33.3308 5.16918C34.8774 6.71581 35.7475 8.81275 35.75 11V19.25H38.5C39.2291 19.2507 39.9282 19.5407 40.4437 20.0563C40.9593 20.5718 41.2493 21.2709 41.25 22V38.5C41.2493 39.2291 40.9593 39.9282 40.4437 40.4437C39.9282 40.9593 39.2291 41.2493 38.5 41.25Z" fill="#979797"/>
<path id="Vector_2" d="M27.5 19.25H24.75V11C24.75 8.81196 23.8808 6.71354 22.3336 5.16637C20.7865 3.61919 18.688 2.75 16.5 2.75C14.312 2.75 12.2135 3.61919 10.6664 5.16637C9.11919 6.71354 8.25 8.81196 8.25 11V19.25H5.5C4.77065 19.25 4.07118 19.5397 3.55546 20.0555C3.03973 20.5712 2.75 21.2707 2.75 22V38.5C2.75 39.2293 3.03973 39.9288 3.55546 40.4445C4.07118 40.9603 4.77065 41.25 5.5 41.25H27.5C28.2293 41.25 28.9288 40.9603 29.4445 40.4445C29.9603 39.9288 30.25 39.2293 30.25 38.5V22C30.25 21.2707 29.9603 20.5712 29.4445 20.0555C28.9288 19.5397 28.2293 19.25 27.5 19.25ZM11 11C11 9.54131 11.5795 8.14236 12.6109 7.11091C13.6424 6.07946 15.0413 5.5 16.5 5.5C17.9587 5.5 19.3576 6.07946 20.3891 7.11091C21.4205 8.14236 22 9.54131 22 11V19.25H11V11ZM27.5 38.5H5.5V22H27.5V38.5Z" fill="#979797"/>
</g>
</svg>
