<svg xmlns="http://www.w3.org/2000/svg" width="17" height="17" viewBox="0 0 17 17" fill="none">
  <g clip-path="url(#clip0_685_2135)">
    <path d="M0 13.4572V14.875C0 16.0471 2.85547 17 6.375 17C9.89453 17 12.75 16.0471 12.75 14.875V13.4572C11.3787 14.4234 8.87187 14.875 6.375 14.875C3.87813 14.875 1.37129 14.4234 0 13.4572ZM10.625 4.25C14.1445 4.25 17 3.29707 17 2.125C17 0.95293 14.1445 0 10.625 0C7.10547 0 4.25 0.95293 4.25 2.125C4.25 3.29707 7.10547 4.25 10.625 4.25ZM0 9.97422V11.6875C0 12.8596 2.85547 13.8125 6.375 13.8125C9.89453 13.8125 12.75 12.8596 12.75 11.6875V9.97422C11.3787 11.1031 8.86856 11.6875 6.375 11.6875C3.88145 11.6875 1.37129 11.1031 0 9.97422ZM13.8125 10.3395C15.715 9.9709 17 9.28691 17 8.5V7.08223C16.2297 7.62676 15.0975 7.99863 13.8125 8.22773V10.3395ZM6.375 5.3125C2.85547 5.3125 0 6.50117 0 7.96875C0 9.43633 2.85547 10.625 6.375 10.625C9.89453 10.625 12.75 9.43633 12.75 7.96875C12.75 6.50117 9.89453 5.3125 6.375 5.3125ZM13.6564 7.18184C15.6486 6.82324 17 6.11934 17 5.3125V3.89473C15.8213 4.72813 13.7959 5.17637 11.6643 5.28262C12.6437 5.75742 13.3643 6.39492 13.6564 7.18184Z" fill="#C2C2C2"/>
  </g>
  <defs>
    <clipPath id="clip0_685_2135">
      <rect width="17" height="17" fill="white"/>
    </clipPath>
  </defs>
</svg>