<svg width="13" height="13" viewBox="0 0 13 13" fill="none" xmlns="http://www.w3.org/2000/svg">
<path id="Vector" d="M6.5 12C5.4122 12 4.34884 11.6774 3.44437 11.0731C2.5399 10.4687 1.83495 9.60975 1.41867 8.60476C1.00238 7.59977 0.893465 6.4939 1.10568 5.42701C1.3179 4.36011 1.84173 3.3801 2.61092 2.61091C3.3801 1.84173 4.36011 1.3179 5.42701 1.10568C6.4939 0.893465 7.59977 1.00238 8.60476 1.41866C9.60975 1.83495 10.4687 2.5399 11.0731 3.44437C11.6774 4.34884 12 5.4122 12 6.5C12 7.40933 11.78 8.26672 11.3889 9.02206L12 12L9.02206 11.3889C8.26672 11.78 7.40872 12 6.5 12Z" stroke="#9D40B1" stroke-width="2" stroke-linecap="round" stroke-linejoin="round"/>
</svg>
