<svg width="56" height="56" viewBox="0 0 56 56" fill="none" xmlns="http://www.w3.org/2000/svg">
<g id="Featured icon">
<rect x="4" y="4" width="48" height="48" rx="24" fill="#F4EBFF"/>
<rect x="4" y="4" width="48" height="48" rx="24" stroke="#F9F5FF" stroke-width="8"/>
<g id="delete">
<mask id="mask0_3567_255" style="mask-type:alpha" maskUnits="userSpaceOnUse" x="16" y="16" width="24" height="24">
<rect id="Bounding box" x="16" y="16" width="24" height="24" fill="#D9D9D9"/>
</mask>
<g mask="url(#mask0_3567_255)">
<path id="delete_2" d="M22.375 38C21.7562 38 21.2266 37.7824 20.7859 37.3472C20.3453 36.912 20.125 36.3889 20.125 35.7778V21.3333C19.8062 21.3333 19.5391 21.2269 19.3234 21.0139C19.1078 20.8009 19 20.537 19 20.2222C19 19.9074 19.1078 19.6435 19.3234 19.4306C19.5391 19.2176 19.8062 19.1111 20.125 19.1111H24.625C24.625 18.7963 24.7328 18.5324 24.9484 18.3194C25.1641 18.1065 25.4313 18 25.75 18H30.25C30.5688 18 30.8359 18.1065 31.0516 18.3194C31.2672 18.5324 31.375 18.7963 31.375 19.1111H35.875C36.1938 19.1111 36.4609 19.2176 36.6766 19.4306C36.8922 19.6435 37 19.9074 37 20.2222C37 20.537 36.8922 20.8009 36.6766 21.0139C36.4609 21.2269 36.1938 21.3333 35.875 21.3333V35.7778C35.875 36.3889 35.6547 36.912 35.2141 37.3472C34.7734 37.7824 34.2437 38 33.625 38H22.375ZM25.75 33.5556C26.0687 33.5556 26.3359 33.4491 26.5516 33.2361C26.7672 33.0231 26.875 32.7593 26.875 32.4444V24.6667C26.875 24.3519 26.7672 24.088 26.5516 23.875C26.3359 23.662 26.0687 23.5556 25.75 23.5556C25.4313 23.5556 25.1641 23.662 24.9484 23.875C24.7328 24.088 24.625 24.3519 24.625 24.6667V32.4444C24.625 32.7593 24.7328 33.0231 24.9484 33.2361C25.1641 33.4491 25.4313 33.5556 25.75 33.5556ZM30.25 33.5556C30.5688 33.5556 30.8359 33.4491 31.0516 33.2361C31.2672 33.0231 31.375 32.7593 31.375 32.4444V24.6667C31.375 24.3519 31.2672 24.088 31.0516 23.875C30.8359 23.662 30.5688 23.5556 30.25 23.5556C29.9312 23.5556 29.6641 23.662 29.4484 23.875C29.2328 24.088 29.125 24.3519 29.125 24.6667V32.4444C29.125 32.7593 29.2328 33.0231 29.4484 33.2361C29.6641 33.4491 29.9312 33.5556 30.25 33.5556Z" fill="#46137C"/>
</g>
</g>
</g>
</svg>
