<svg width="62" height="64" viewBox="0 0 62 64" fill="none" xmlns="http://www.w3.org/2000/svg">
<g id="healthicons:desktop-app-outline">
<path id="Vector" fill-rule="evenodd" clip-rule="evenodd" d="M11.7455 11.3335C9.50034 11.3335 7.68018 13.2535 7.68018 15.6188V41.3335C7.68018 43.7002 9.50034 45.6188 11.7455 45.6188H25.2994V48.4762H19.8773V51.3335H41.5631V48.4762H36.141V45.6188H49.6949C51.94 45.6188 53.7602 43.7002 53.7602 41.3335V15.6188C53.7602 13.2535 51.94 11.3335 49.6949 11.3335H11.7455ZM28.0091 48.4762H33.4312V45.6188H28.0091V48.4762ZM10.3912 15.6188C10.3912 14.8308 10.9979 14.1908 11.7455 14.1908H49.6949C50.4424 14.1908 51.0491 14.8308 51.0491 15.6188V41.3335C51.0491 42.1228 50.4424 42.7615 49.6949 42.7615H11.7455C10.9979 42.7615 10.3912 42.1215 10.3912 41.3335V15.6188ZM19.8773 17.0482H17.1675V19.9055H14.4565V22.7615H17.1675V25.6188H19.8773V22.7615H22.5883V19.9068H19.8773V17.0482ZM15.812 28.4762C15.0632 28.4762 14.4552 29.1162 14.4552 29.9055V35.6188C14.4552 36.4082 15.0632 37.0482 15.812 37.0482H21.2328C21.9816 37.0482 22.5883 36.4082 22.5883 35.6188V29.9068C22.5883 29.1175 21.9816 28.4775 21.2328 28.4775L15.812 28.4762ZM17.1675 34.1908V31.3335H19.8773V34.1908H17.1675ZM26.6549 18.4762C26.6549 17.6868 27.2616 17.0482 28.0104 17.0482H33.4312C34.18 17.0482 34.7867 17.6882 34.7867 18.4762V24.1908C34.7867 24.9802 34.18 25.6188 33.4299 25.6188H28.0104C27.2616 25.6188 26.6536 24.9788 26.6536 24.1908L26.6549 18.4762ZM29.3647 19.9055V22.7615H32.0757V19.9068L29.3647 19.9055ZM28.0104 28.4762C27.2616 28.4762 26.6536 29.1162 26.6536 29.9055V35.6188C26.6536 36.4082 27.2616 37.0482 28.0104 37.0482H33.4312C34.18 37.0482 34.7867 36.4082 34.7867 35.6188V29.9068C34.7867 29.1175 34.18 28.4775 33.4299 28.4775L28.0104 28.4762ZM29.3647 34.1908V31.3335H32.0757V34.1908H29.3647ZM38.852 18.4762C38.852 17.6868 39.4587 17.0482 40.2075 17.0482H45.6283C46.3771 17.0482 46.9839 17.6882 46.9839 18.4762V24.1908C46.9839 24.9802 46.3771 25.6188 45.6283 25.6188H40.2075C39.4587 25.6188 38.852 24.9788 38.852 24.1908V18.4762ZM41.5631 19.9055V22.7615H44.2728V19.9068L41.5631 19.9055Z" fill="#BA68C8"/>
</g>
</svg>
