<svg width="21" height="21" viewBox="0 0 21 21" fill="none" xmlns="http://www.w3.org/2000/svg">
<path id="Vector" d="M16.9997 0.203657L2.15041 5.15341C1.56528 5.34964 1.05491 5.72156 0.688884 6.21846C0.322857 6.71536 0.118986 7.31306 0.105069 7.93006C0.0911517 8.54706 0.267864 9.15335 0.611114 9.66624C0.954364 10.1791 1.44745 10.5737 2.02313 10.7961L7.51735 12.8962C7.64766 12.9495 7.76605 13.0282 7.86561 13.1278C7.96516 13.2274 8.04388 13.3457 8.09718 13.4761L10.1973 18.9703C10.3765 19.437 10.6695 19.8515 11.0496 20.1762C11.4297 20.5008 11.885 20.7254 12.374 20.8293C12.863 20.9333 13.3702 20.9135 13.8495 20.7716C14.3289 20.6296 14.7652 20.3702 15.1188 20.0168C15.4465 19.6824 15.6954 19.2789 15.8471 18.8359L20.7968 3.98668C20.9713 3.45889 20.9957 2.89299 20.8674 2.35212C20.739 1.81126 20.4629 1.3167 20.0698 0.923623C19.6767 0.530548 19.1821 0.254418 18.6413 0.12604C18.1004 -0.0023391 17.5345 0.0220848 17.0067 0.196586L16.9997 0.203657ZM18.8947 3.35735L13.945 18.2066C13.8774 18.399 13.7526 18.5662 13.5873 18.6856C13.4221 18.8051 13.2242 18.8712 13.0203 18.8751C12.8164 18.8789 12.6162 18.8203 12.4466 18.7072C12.2769 18.594 12.1459 18.4317 12.0711 18.242L9.96394 12.7548C9.93511 12.6822 9.90206 12.6114 9.86495 12.5427L14.7369 7.67071C14.9244 7.48317 15.0298 7.22882 15.0298 6.9636C15.0298 6.69838 14.9244 6.44403 14.7369 6.25649C14.5494 6.06896 14.295 5.9636 14.0298 5.9636C13.7646 5.9636 13.5102 6.06896 13.3227 6.25649L8.45073 11.1285C8.38202 11.0913 8.31118 11.0583 8.2386 11.0295L2.75145 8.92228C2.56173 8.8475 2.39941 8.71649 2.28625 8.54684C2.17309 8.37718 2.11451 8.17698 2.11835 7.97309C2.1222 7.76919 2.18829 7.57135 2.30777 7.40608C2.42725 7.24082 2.5944 7.11603 2.78681 7.04845L17.6361 2.0987C17.8112 2.04222 17.9986 2.03517 18.1775 2.07833C18.3564 2.12149 18.5199 2.21319 18.6501 2.34334C18.7802 2.47348 18.8719 2.63701 18.9151 2.81592C18.9582 2.99484 18.9512 3.18219 18.8947 3.35735Z" fill="#BB02C3"/>
</svg>
