<svg width="34" height="29" viewBox="0 0 34 29" fill="none" xmlns="http://www.w3.org/2000/svg">
<path id="Vector" d="M17.8095 24.1667C17.8095 23.6189 17.8743 23.0872 17.9552 22.5556H3.2381V6.44444L16.1905 14.5L29.1429 6.44444V14.645C30.3086 14.8383 31.3933 15.2411 32.381 15.805V3.22222C32.381 1.45 30.9238 0 29.1429 0H3.2381C1.45714 0 0 1.45 0 3.22222V22.5556C0 24.3278 1.45714 25.7778 3.2381 25.7778H17.9552C17.8743 25.2461 17.8095 24.7144 17.8095 24.1667ZM29.1429 3.22222L16.1905 11.2778L3.2381 3.22222H29.1429ZM29.1429 29V25.7778H22.6667V22.5556H29.1429V19.3333L34 24.1667L29.1429 29Z" fill="#6A007C"/>
</svg>
