<svg width="200" height="180" viewBox="0 0 200 180" fill="none" xmlns="http://www.w3.org/2000/svg">
<g id="undraw_mail_sent_re_0ofv 1" clip-path="url(#clip0_2826_1455)">
<path id="Vector" d="M198.245 68.6578C198.174 68.6579 198.104 68.6359 198.045 68.5949L101.007 1.01477C100.712 0.810065 100.361 0.700668 100.001 0.701281C99.642 0.701894 99.2915 0.812485 98.9969 1.01819L2.65769 68.5943C2.58149 68.6477 2.48719 68.6687 2.39551 68.6526C2.30384 68.6365 2.2223 68.5847 2.16886 68.5085C2.11541 68.4323 2.09442 68.338 2.11051 68.2463C2.1266 68.1546 2.17845 68.0731 2.25465 68.0196L98.5939 0.443563C99.0064 0.155616 99.4972 0.000830043 100 3.32898e-06C100.503 -0.000823385 100.995 0.152347 101.408 0.438937L198.446 68.0189C198.507 68.0617 198.554 68.1228 198.578 68.1935C198.602 68.2643 198.603 68.3408 198.58 68.4121C198.558 68.4834 198.513 68.5456 198.453 68.5898C198.393 68.634 198.32 68.6579 198.245 68.6578Z" fill="#263238"/>
<path id="Vector_2" d="M8.16278 71.0533L100.097 2.91895L192.728 75.9014L104.834 128.007L57.1144 117.129L8.16278 71.0533Z" fill="#E6E6E6"/>
<path id="Vector_3" d="M61.1423 160.19H15.7246C15.4458 160.19 15.1696 160.136 14.9118 160.029C14.654 159.923 14.4198 159.767 14.2225 159.57C14.0252 159.372 13.8686 159.138 13.7618 158.881C13.655 158.623 13.6 158.347 13.6 158.068C13.6 157.789 13.655 157.513 13.7618 157.256C13.8686 156.998 14.0252 156.764 14.2225 156.567C14.4198 156.37 14.654 156.213 14.9118 156.107C15.1696 156.001 15.4458 155.946 15.7246 155.946H61.1423C61.4212 155.946 61.6974 156.001 61.9552 156.107C62.2129 156.213 62.4471 156.37 62.6445 156.567C62.8418 156.764 62.9983 156.998 63.1051 157.256C63.2119 157.513 63.2669 157.789 63.2669 158.068C63.2669 158.347 63.2119 158.623 63.1051 158.881C62.9983 159.138 62.8418 159.372 62.6445 159.57C62.4471 159.767 62.2129 159.923 61.9552 160.029C61.6974 160.136 61.4212 160.19 61.1423 160.19Z" fill="#BA68C8"/>
<path id="Vector_4" d="M32.0195 151.067H15.7246C15.4458 151.067 15.1696 151.013 14.9118 150.906C14.654 150.8 14.4198 150.644 14.2225 150.446C14.0252 150.249 13.8686 150.015 13.7618 149.758C13.655 149.5 13.6 149.224 13.6 148.945C13.6 148.666 13.655 148.39 13.7618 148.132C13.8686 147.875 14.0252 147.641 14.2225 147.444C14.4198 147.247 14.654 147.09 14.9118 146.984C15.1696 146.877 15.4458 146.823 15.7246 146.823H32.0195C32.2984 146.823 32.5746 146.877 32.8323 146.984C33.0901 147.09 33.3243 147.247 33.5217 147.444C33.719 147.641 33.8755 147.875 33.9823 148.132C34.0891 148.39 34.1441 148.666 34.1441 148.945C34.1441 149.224 34.0891 149.5 33.9823 149.758C33.8755 150.015 33.719 150.249 33.5217 150.446C33.3243 150.644 33.0901 150.8 32.8323 150.906C32.5746 151.013 32.2984 151.067 32.0195 151.067Z" fill="#BA68C8"/>
<path id="Vector_5" d="M101.39 109.003C101.044 109.004 100.702 108.937 100.383 108.806L43.6843 85.2802V11.6402C43.685 10.989 43.944 10.3648 44.4045 9.90431C44.8649 9.44386 45.4892 9.18484 46.1404 9.18408H154.912C155.563 9.18484 156.188 9.44386 156.648 9.90431C157.109 10.3648 157.368 10.989 157.368 11.6402V85.3316L157.262 85.3772L102.427 108.795C102.098 108.933 101.746 109.004 101.39 109.003Z" fill="white"/>
<path id="Vector_6" d="M101.39 109.179C101.021 109.179 100.657 109.108 100.316 108.969L43.5089 85.3976V11.6404C43.5096 10.9427 43.7871 10.2738 44.2805 9.78043C44.7738 9.28709 45.4427 9.00958 46.1404 9.00879H154.912C155.61 9.00958 156.279 9.28709 156.772 9.78043C157.266 10.2738 157.543 10.9427 157.544 11.6404V85.4476L102.496 108.956C102.145 109.103 101.769 109.179 101.39 109.179ZM44.2106 84.9288L100.584 108.32C101.109 108.533 101.698 108.53 102.221 108.31L156.842 84.9843V11.6404C156.842 11.1287 156.638 10.6382 156.276 10.2764C155.915 9.91467 155.424 9.71115 154.912 9.71054H46.1404C45.6288 9.71115 45.1383 9.91467 44.7765 10.2764C44.4147 10.6382 44.2112 11.1287 44.2106 11.6404L44.2106 84.9288Z" fill="#263238"/>
<path id="Vector_7" d="M197.544 67.9561H197.474L157.193 85.1561L102.081 108.689C101.865 108.78 101.634 108.827 101.401 108.828C101.167 108.83 100.936 108.785 100.719 108.696L43.8596 85.1069L2.58943 67.9841L2.52638 67.9561H2.45614C1.80495 67.9568 1.18064 68.2158 0.720183 68.6762C0.259724 69.1367 0.000722544 69.761 0 70.4122V177.079C0.000723471 177.73 0.259724 178.354 0.720183 178.815C1.18064 179.275 1.80495 179.534 2.45614 179.535H197.544C198.195 179.534 198.819 179.275 199.28 178.815C199.74 178.354 199.999 177.73 200 177.079V70.4122C199.999 69.761 199.74 69.1367 199.28 68.6762C198.819 68.2158 198.195 67.9568 197.544 67.9561ZM199.298 177.079C199.298 177.544 199.113 177.99 198.784 178.319C198.455 178.648 198.009 178.833 197.544 178.833H2.45614C1.99091 178.833 1.54478 178.648 1.21581 178.319C0.886839 177.99 0.70194 177.544 0.701754 177.079V70.4122C0.702391 69.9585 0.878372 69.5226 1.19291 69.1957C1.50744 68.8687 1.93617 68.676 2.38949 68.6578L43.8596 85.8648L100.449 109.346C101.062 109.595 101.748 109.591 102.358 109.335L157.193 85.9175L197.614 68.6578C198.067 68.6773 198.494 68.8706 198.808 69.1974C199.122 69.5241 199.297 69.9592 199.298 70.4122V177.079Z" fill="#263238"/>
<path id="Vector_8" d="M100.823 88.1215C98.7296 88.1254 96.692 87.4486 95.0172 86.1931L94.9134 86.1151L73.0499 69.3756C72.0373 68.5998 71.1875 67.6322 70.5489 66.5279C69.9104 65.4237 69.4955 64.2045 69.3281 62.9399C69.1607 61.6754 69.2441 60.3902 69.5733 59.1579C69.9026 57.9255 70.4714 56.7701 71.2472 55.7575C72.023 54.745 72.9907 53.8952 74.0949 53.2566C75.1992 52.618 76.4184 52.2032 77.6829 52.0358C78.9475 51.8684 80.2326 51.9517 81.465 52.281C82.6973 52.6103 83.8528 53.179 84.8653 53.9549L99.0269 64.8137L132.493 21.1693C133.269 20.157 134.237 19.3075 135.341 18.6693C136.446 18.0311 137.665 17.6167 138.93 17.4497C140.194 17.2828 141.48 17.3666 142.712 17.6963C143.944 18.0261 145.099 18.5953 146.111 19.3715L145.903 19.654L146.117 19.3756C148.159 20.945 149.495 23.2602 149.832 25.8133C150.169 28.3664 149.479 30.949 147.915 32.9944L108.551 84.3307C107.64 85.5137 106.47 86.4711 105.129 87.1285C103.789 87.7859 102.316 88.1257 100.823 88.1215Z" fill="#BA68C8"/>
</g>
<defs>
<clipPath id="clip0_2826_1455">
<rect width="200" height="179.535" fill="white"/>
</clipPath>
</defs>
</svg>
