<svg xmlns="http://www.w3.org/2000/svg" width="42" height="42" viewBox="0 0 42 42" fill="none">
  <circle cx="21" cy="21" r="21" fill="#CE4646" fill-opacity="0.21"/>
  <g filter="url(#filter0_d_313_1490)">
    <path d="M23.2642 20.6613L19.5134 19.4887C19.0793 19.3551 18.7771 18.9209 18.7771 18.4385C18.7771 17.8336 19.2355 17.3438 19.8016 17.3438H22.1042C22.5279 17.3438 22.9447 17.4811 23.292 17.7334C23.5038 17.8855 23.7886 17.8484 23.9692 17.6592L25.1778 16.3975C25.4244 16.1414 25.3896 15.7146 25.1153 15.4883C24.2644 14.7758 23.2017 14.3787 22.1112 14.375V12.5938C22.1112 12.2672 21.8611 12 21.5555 12H20.4441C20.1385 12 19.8885 12.2672 19.8885 12.5938V14.375H19.8016C17.5894 14.375 15.8112 16.4049 16.0161 18.8133C16.162 20.524 17.3844 21.9156 18.9264 22.398L22.4862 23.5113C22.9204 23.6486 23.2225 24.0791 23.2225 24.5615C23.2225 25.1664 22.7641 25.6562 22.198 25.6562H19.8954C19.4717 25.6562 19.0549 25.5189 18.7076 25.2666C18.4958 25.1145 18.211 25.1516 18.0304 25.3408L16.8218 26.6025C16.5752 26.8586 16.61 27.2854 16.8843 27.5117C17.7352 28.2242 18.7979 28.6213 19.8885 28.625V30.4062C19.8885 30.7328 20.1385 31 20.4441 31H21.5555C21.8611 31 22.1112 30.7328 22.1112 30.4062V28.6176C23.7296 28.5842 25.2472 27.5563 25.7821 25.9197C26.5288 23.6338 25.275 21.2885 23.2642 20.6613Z" fill="#C50000"/>
  </g>
  <defs>
    <filter id="filter0_d_313_1490" x="12" y="10" width="18" height="27" filterUnits="userSpaceOnUse" color-interpolation-filters="sRGB">
      <feFlood flood-opacity="0" result="BackgroundImageFix"/>
      <feColorMatrix in="SourceAlpha" type="matrix" values="0 0 0 0 0 0 0 0 0 0 0 0 0 0 0 0 0 0 127 0" result="hardAlpha"/>
      <feOffset dy="2"/>
      <feGaussianBlur stdDeviation="2"/>
      <feComposite in2="hardAlpha" operator="out"/>
      <feColorMatrix type="matrix" values="0 0 0 0 0.833333 0 0 0 0 0.579861 0 0 0 0 0.579861 0 0 0 1 0"/>
      <feBlend mode="normal" in2="BackgroundImageFix" result="effect1_dropShadow_313_1490"/>
      <feBlend mode="normal" in="SourceGraphic" in2="effect1_dropShadow_313_1490" result="shape"/>
    </filter>
  </defs>
</svg>