<svg width="17" height="17" viewBox="0 0 17 17" fill="none" xmlns="http://www.w3.org/2000/svg">
<g id="solar:download-linear" clip-path="url(#clip0_313_2050)">
<g id="Group">
<path id="Vector" d="M12.0415 6.37646C13.5821 6.38496 14.4165 6.45367 14.9605 6.99767C15.5832 7.6203 15.5832 8.62188 15.5832 10.625V11.3334C15.5832 13.3373 15.5832 14.3388 14.9605 14.9615C14.3386 15.5834 13.3363 15.5834 11.3332 15.5834H5.6665C3.66334 15.5834 2.66105 15.5834 2.03913 14.9615C1.4165 14.3381 1.4165 13.3373 1.4165 11.3334V10.625C1.4165 8.62188 1.4165 7.6203 2.03913 6.99767C2.58313 6.45367 3.41755 6.38496 4.95817 6.37646" stroke="#BB02C3" stroke-width="1.5" stroke-linecap="round"/>
<path id="Vector_2" d="M8.5 1.41675V10.6251M8.5 10.6251L6.375 8.14591M8.5 10.6251L10.625 8.14591" stroke="#BB02C3" stroke-width="1.5" stroke-linecap="round" stroke-linejoin="round"/>
</g>
</g>
<defs>
<clipPath id="clip0_313_2050">
<rect width="17" height="17" fill="white"/>
</clipPath>
</defs>
</svg>
