<svg xmlns="http://www.w3.org/2000/svg" width="26" height="18" viewBox="0 0 26 18" fill="none">
    <path d="M12.9275 5.14258C11.9066 5.14932 10.9294 5.55786 10.2075 6.27976C9.48559 7.00166 9.07705 7.97882 9.07031 8.99972C9.07031 11.1109 10.8163 12.8569 12.9275 12.8569C15.0373 12.8569 16.7846 11.1109 16.7846 8.99972C16.7846 6.88986 15.0373 5.14258 12.9275 5.14258Z" fill="#C5C5C5"/>
    <path d="M12.9266 0C3.11271 0 0.163286 8.50757 0.136286 8.59371L0 9L0.135 9.40629C0.163286 9.49243 3.11271 18 12.9266 18C22.7404 18 25.6899 9.49243 25.7169 9.40629L25.8531 9L25.7181 8.59371C25.6899 8.50757 22.7404 0 12.9266 0ZM12.9266 15.4286C6.04671 15.4286 3.38143 10.4837 2.736 9C3.384 7.51114 6.05057 2.57143 12.9266 2.57143C19.8064 2.57143 22.4717 7.51629 23.1171 9C22.4691 10.4889 19.8026 15.4286 12.9266 15.4286Z" fill="#C5C5C5"/>
</svg>