<svg xmlns="http://www.w3.org/2000/svg" width="32" height="32" viewBox="0 0 32 32" fill="none">
  <circle cx="16" cy="16" r="16" fill="#A50404"/>
  <path d="M16.1875 8.69904C16.1875 8.00178 15.3095 7.73898 14.9228 8.31701C11.375 13.6206 16.4167 13.8594 16.4167 16.4375C16.4167 17.4814 15.5828 18.326 14.559 18.3122C13.5515 18.299 12.75 17.44 12.75 16.4097V13.9045C12.75 13.2688 11.9917 12.9603 11.5632 13.4211C10.7964 14.2449 10 15.6562 10 17.375C10 20.4767 12.4673 23 15.5 23C18.5327 23 21 20.4767 21 17.375C21 12.386 16.1875 11.7207 16.1875 8.69904Z" fill="white"/>
</svg>