<svg width="143" height="19" viewBox="0 0 143 19" fill="none" xmlns="http://www.w3.org/2000/svg">
<g id="Group 268">
<g id="Group 267">
<path id="Vector" d="M9.81672 15.7141L14.5777 18.5936C15.4496 19.1213 16.5165 18.3412 16.287 17.3546L15.0251 11.9397L19.2354 8.29154C20.004 7.62615 19.591 6.36421 18.5815 6.2839L13.0404 5.81354L10.8722 0.696937C10.4821 -0.232312 9.15133 -0.232312 8.76128 0.696937L6.59303 5.80207L1.05195 6.27243C0.0423984 6.35274 -0.370601 7.61468 0.398037 8.28007L4.60834 11.9282L3.3464 17.3431C3.11695 18.3297 4.18387 19.1098 5.05575 18.5821L9.81672 15.7141Z" fill="#E4A951"/>
<path id="Vector_2" d="M40.4505 15.7141L45.2115 18.5936C46.0834 19.1213 47.1503 18.3412 46.9208 17.3546L45.6589 11.9397L49.8692 8.29154C50.6378 7.62615 50.2248 6.36421 49.2153 6.2839L43.6742 5.81354L41.506 0.696937C41.1159 -0.232312 39.7851 -0.232312 39.3951 0.696937L37.2268 5.80207L31.6857 6.27243C30.6762 6.35274 30.2632 7.61468 31.0318 8.28007L35.2421 11.9282L33.9802 17.3431C33.7507 18.3297 34.8177 19.1098 35.6895 18.5821L40.4505 15.7141Z" fill="#E4A951"/>
<path id="Vector_3" d="M71.0838 15.7141L75.8448 18.5936C76.7167 19.1213 77.7836 18.3412 77.5541 17.3546L76.2922 11.9397L80.5025 8.29154C81.2711 7.62615 80.8581 6.36421 79.8486 6.2839L74.3075 5.81354L72.1393 0.696937C71.7492 -0.232312 70.4184 -0.232312 70.0284 0.696937L67.8601 5.80207L62.319 6.27243C61.3095 6.35274 60.8965 7.61468 61.6651 8.28007L65.8754 11.9282L64.6135 17.3431C64.384 18.3297 65.451 19.1098 66.3228 18.5821L71.0838 15.7141Z" fill="#E4A951"/>
<path id="Vector_4" d="M101.717 15.7141L106.478 18.5936C107.35 19.1213 108.417 18.3412 108.187 17.3546L106.925 11.9397L111.136 8.29154C111.904 7.62615 111.491 6.36421 110.482 6.2839L104.941 5.81354L102.773 0.696937C102.382 -0.232312 101.052 -0.232312 100.662 0.696937L98.4934 5.80207L92.9523 6.27243C91.9428 6.35274 91.5298 7.61468 92.2984 8.28007L96.5087 11.9282L95.2468 17.3431C95.0173 18.3297 96.0843 19.1098 96.9561 18.5821L101.717 15.7141Z" fill="#E4A951"/>
<path id="Vector_5" d="M132.351 15.7141L137.112 18.5936C137.984 19.1213 139.051 18.3412 138.821 17.3546L137.559 11.9397L141.77 8.29154C142.538 7.62615 142.125 6.36421 141.116 6.2839L135.575 5.81354L133.406 0.696937C133.016 -0.232312 131.686 -0.232312 131.295 0.696937L129.127 5.80207L123.586 6.27243C122.577 6.35274 122.164 7.61468 122.932 8.28007L127.143 11.9282L125.881 17.3431C125.651 18.3297 126.718 19.1098 127.59 18.5821L132.351 15.7141Z" fill="#E4A951"/>
</g>
</g>
</svg>
