<svg width="73" height="65" viewBox="0 0 73 65" fill="none" xmlns="http://www.w3.org/2000/svg">
<path id="Vector" d="M40.7239 0C58.5548 0 73 14.625 73 32.5C73 50.375 58.5548 65 40.7239 65C29.4064 65 19.5075 59.085 13.7359 50.1475L18.8304 46.085C23.3768 53.5275 31.47 58.5 40.7562 58.5C47.5975 58.5 54.1585 55.7607 58.996 50.8848C63.8336 46.0088 66.5512 39.3956 66.5512 32.5C66.5512 25.6044 63.8336 18.9912 58.996 14.1152C54.1585 9.23928 47.5975 6.5 40.7562 6.5C27.6007 6.5 16.7668 16.445 15.1868 29.25H24.0861L12.0269 41.3725L0 29.25H8.67359C10.2858 12.8375 24.0216 0 40.7239 0ZM50.2681 26.78C51.8803 26.8125 53.2023 28.1125 53.2023 29.77V44.7525C53.2023 46.3775 51.8803 47.7425 50.2359 47.7425H32.405C30.7606 47.7425 29.4386 46.3775 29.4386 44.7525V29.77C29.4386 28.1125 30.7606 26.8125 32.3728 26.78V23.4975C32.3728 18.525 36.4033 14.495 41.3043 14.495C46.2376 14.495 50.2681 18.525 50.2681 23.4975V26.78ZM41.3043 19.045C38.886 19.045 36.8869 21.0275 36.8869 23.4975V26.78H45.754V23.4975C45.754 21.0275 43.7549 19.045 41.3043 19.045Z" fill="#707070"/>
</svg>
