<svg xmlns="http://www.w3.org/2000/svg" width="33" height="33" viewBox="0 0 33 33" fill="none">
  <g clip-path="url(#clip0_693_4930)">
    <path d="M11.4958 1.08541C8.19861 2.22924 5.3551 4.40027 3.38296 7.27962C1.41081 10.159 0.413988 13.5948 0.5389 17.0826C0.663813 20.5703 1.90388 23.9261 4.07695 26.657C6.25002 29.3879 9.24156 31.3499 12.6121 32.2549C15.3448 32.96 18.2077 32.991 20.955 32.3452C23.4437 31.7862 25.7446 30.5904 27.6323 28.875C29.597 27.0351 31.0232 24.6945 31.7573 22.1049C32.555 19.2887 32.697 16.3271 32.1724 13.4475H16.8274V19.8129H25.7142C25.5366 20.8281 25.156 21.7971 24.5951 22.6618C24.0343 23.5265 23.3048 24.2692 22.4503 24.8454C21.3652 25.5635 20.1419 26.0465 18.8589 26.2634C17.5723 26.5027 16.2526 26.5027 14.966 26.2634C13.6618 25.9941 12.4282 25.4558 11.3437 24.683C9.60128 23.4496 8.29296 21.6973 7.60543 19.6763C6.90647 17.6173 6.90647 15.3853 7.60543 13.3263C8.09483 11.8832 8.90386 10.5691 9.97215 9.48236C11.1947 8.21585 12.7424 7.31054 14.4456 6.86576C16.1488 6.42098 17.9415 6.45392 19.6272 6.96096C20.9441 7.36501 22.1484 8.0713 23.1438 9.02346C24.1458 8.02658 25.1461 7.02713 26.1447 6.0251C26.6604 5.48627 27.2224 4.97322 27.7303 4.4215C26.2106 3.00745 24.4268 1.90707 22.4812 1.18338C18.9381 -0.103133 15.0613 -0.137707 11.4958 1.08541Z" fill="white"/>
    <path d="M11.4958 1.08544C15.061 -0.138506 18.9378 -0.104842 22.4812 1.18083C24.4272 1.90944 26.2101 3.01512 27.7277 4.43443C27.2121 4.98614 26.6681 5.50177 26.1422 6.03802C25.1419 7.03661 24.1424 8.03177 23.1438 9.02349C22.1484 8.07133 20.9442 7.36504 19.6272 6.96099C17.9421 6.45217 16.1494 6.41733 14.4458 6.86029C12.7422 7.30325 11.1935 8.2069 9.96959 9.47208C8.9013 10.5589 8.09227 11.8729 7.60288 13.3161L2.25842 9.17817C4.17141 5.38462 7.48363 2.48285 11.4958 1.08544Z" fill="#E33629"/>
    <path d="M0.840432 13.2774C1.12748 11.8537 1.6044 10.475 2.2584 9.17822L7.60285 13.3264C6.9039 15.3854 6.9039 17.6174 7.60285 19.6763C5.82223 21.0513 4.04074 22.4332 2.2584 23.822C0.62168 20.564 0.122508 16.852 0.840432 13.2774Z" fill="#F8BD00"/>
    <path d="M16.8274 13.4448H32.1724C32.6971 16.3244 32.5551 19.286 31.7574 22.1022C31.0232 24.6918 29.5971 27.0324 27.6324 28.8723C25.9076 27.5265 24.1751 26.1911 22.4503 24.8453C23.3054 24.2685 24.0353 23.525 24.5961 22.6594C25.157 21.7937 25.5373 20.8238 25.7142 19.8076H16.8274C16.8249 17.6884 16.8274 15.5666 16.8274 13.4448Z" fill="#587DBD"/>
    <path d="M2.25586 23.8219C4.0382 22.4469 5.81969 21.065 7.60031 19.6763C8.28921 21.698 9.5994 23.4504 11.3438 24.683C12.4316 25.4522 13.6679 25.9861 14.9738 26.2505C16.2604 26.4898 17.5801 26.4898 18.8667 26.2505C20.1497 26.0336 21.373 25.5506 22.458 24.8325C24.1828 26.1783 25.9153 27.5138 27.6401 28.8596C25.7526 30.5759 23.4517 31.7725 20.9627 32.3323C18.2155 32.9781 15.3525 32.9472 12.6199 32.2421C10.4587 31.665 8.43994 30.6477 6.69024 29.254C4.83844 27.7835 3.32587 25.9306 2.25586 23.8219Z" fill="#319F43"/>
  </g>
  <defs>
    <clipPath id="clip0_693_4930">
      <rect width="33" height="33" fill="white"/>
    </clipPath>
  </defs>
</svg>