<svg width="16" height="16" viewBox="0 0 16 16" fill="none" xmlns="http://www.w3.org/2000/svg">
<path id="Vector" d="M8 0C3.576 0 0 3.6 0 8C0 10.1217 0.842855 12.1566 2.34315 13.6569C3.08601 14.3997 3.96793 14.989 4.93853 15.391C5.90914 15.7931 6.94943 16 8 16C10.1217 16 12.1566 15.1571 13.6569 13.6569C15.1571 12.1566 16 10.1217 16 8C16 6.94943 15.7931 5.90914 15.391 4.93853C14.989 3.96793 14.3997 3.08601 13.6569 2.34315C12.914 1.60028 12.0321 1.011 11.0615 0.608964C10.0909 0.206926 9.05058 0 8 0ZM10.8 4.8C11.1183 4.8 11.4235 4.92643 11.6485 5.15147C11.8736 5.37652 12 5.68174 12 6C12 6.31826 11.8736 6.62348 11.6485 6.84853C11.4235 7.07357 11.1183 7.2 10.8 7.2C10.4817 7.2 10.1765 7.07357 9.95147 6.84853C9.72643 6.62348 9.6 6.31826 9.6 6C9.6 5.68174 9.72643 5.37652 9.95147 5.15147C10.1765 4.92643 10.4817 4.8 10.8 4.8ZM5.2 4.8C5.51826 4.8 5.82348 4.92643 6.04853 5.15147C6.27357 5.37652 6.4 5.68174 6.4 6C6.4 6.31826 6.27357 6.62348 6.04853 6.84853C5.82348 7.07357 5.51826 7.2 5.2 7.2C4.88174 7.2 4.57652 7.07357 4.35147 6.84853C4.12643 6.62348 4 6.31826 4 6C4 5.68174 4.12643 5.37652 4.35147 5.15147C4.57652 4.92643 4.88174 4.8 5.2 4.8ZM8 12.4C6.136 12.4 4.552 11.232 3.912 9.6H12.088C11.44 11.232 9.864 12.4 8 12.4Z" fill="#328B13"/>
</svg>
