<svg width="18" height="20" viewBox="0 0 18 20" fill="none" xmlns="http://www.w3.org/2000/svg">
<g id="Group 389">
<path id="Vector" d="M12 10L7.8 15L6 12.9964" stroke="white" stroke-width="2" stroke-linecap="round" stroke-linejoin="round"/>
<path id="Vector_2" d="M5 6.53846V5.15385C5 4.05218 5.42143 2.99563 6.17157 2.21663C6.92172 1.43764 7.93913 1 9 1C10.0609 1 11.0783 1.43764 11.8284 2.21663C12.5786 2.99563 13 4.05218 13 5.15385V6.53846M1.66667 6.53846C1.48986 6.53846 1.32029 6.6114 1.19526 6.74123C1.07024 6.87107 1 7.04716 1 7.23077V16.5769C1 17.8854 2.07333 19 3.33333 19H14.6667C15.9267 19 17 17.9395 17 16.631V7.23077C17 7.04716 16.9298 6.87107 16.8047 6.74123C16.6797 6.6114 16.5101 6.53846 16.3333 6.53846H1.66667Z" stroke="white" stroke-width="2" stroke-linecap="round" stroke-linejoin="round"/>
</g>
</svg>
