<svg xmlns="http://www.w3.org/2000/svg" width="16" height="17" viewBox="0 0 16 17" fill="none">
  <path d="M12.6452 1.8248C14.6774 3.34265 16 5.82519 16 8.63491C16 13.2492 12.4258 16.9899 8.01613 17C3.61291 17.0101 0.0064575 13.2559 5.88762e-06 8.6484C-0.00321992 5.83868 1.31936 3.3494 3.34839 1.82817C3.72581 1.54821 4.25162 1.66627 4.47742 2.08789L4.9871 3.03571C5.17742 3.38988 5.0871 3.83849 4.7742 4.08134C3.43549 5.12023 2.58065 6.76626 2.58065 8.63154C2.57742 11.7448 4.98387 14.3016 8 14.3016C10.9548 14.3016 13.4387 11.7988 13.4194 8.59781C13.4097 6.85059 12.6226 5.16408 11.2226 4.07797C10.9097 3.83511 10.8226 3.3865 11.0129 3.03571L11.5226 2.08789C11.7484 1.66964 12.271 1.54484 12.6452 1.8248ZM9.29033 8.90475V0.809523C9.29033 0.360912 8.94516 0 8.51613 0H7.48387C7.05484 0 6.70968 0.360912 6.70968 0.809523V8.90475C6.70968 9.35336 7.05484 9.71427 7.48387 9.71427H8.51613C8.94516 9.71427 9.29033 9.35336 9.29033 8.90475Z" fill="#D203D3"/>
</svg>