<svg width="56" height="56" viewBox="0 0 56 56" fill="none" xmlns="http://www.w3.org/2000/svg">
<g id="mdi:email-multiple">
<path id="Vector" d="M51.3333 14V9.33335L32.6667 21L14 9.33335V14L32.6667 25.6667L51.3333 14ZM51.3333 4.66669C52.571 4.66669 53.758 5.15835 54.6332 6.03352C55.5083 6.90869 56 8.09568 56 9.33335V37.3334C56 38.571 55.5083 39.758 54.6332 40.6332C53.758 41.5084 52.571 42 51.3333 42H14C12.7623 42 11.5753 41.5084 10.7002 40.6332C9.825 39.758 9.33333 38.571 9.33333 37.3334V9.33335C9.33333 6.74335 11.41 4.66669 14 4.66669H51.3333ZM4.66667 14V46.6667H46.6667V51.3334H4.66667C3.42899 51.3334 2.242 50.8417 1.36683 49.9665C0.491665 49.0913 0 47.9044 0 46.6667V14H4.66667Z" fill="#707070"/>
</g>
</svg>
