<svg width="22" height="22" viewBox="0 0 22 22" fill="none" xmlns="http://www.w3.org/2000/svg">
<g id="ooui:message" clip-path="url(#clip0_2824_708)">
<path id="Vector" d="M0 8.7998V17.5998C0 18.1833 0.231785 18.7429 0.644365 19.1554C1.05695 19.568 1.61652 19.7998 2.2 19.7998H19.8C20.3835 19.7998 20.9431 19.568 21.3556 19.1554C21.7682 18.7429 22 18.1833 22 17.5998V8.7998L11 13.1998L0 8.7998Z" fill="#46137C"/>
<path id="Vector_2" d="M2.2 2.2002C1.61652 2.2002 1.05695 2.43198 0.644365 2.84456C0.231785 3.25714 0 3.81672 0 4.4002L0 6.6002L11 11.0002L22 6.6002V4.4002C22 3.81672 21.7682 3.25714 21.3556 2.84456C20.9431 2.43198 20.3835 2.2002 19.8 2.2002H2.2Z" fill="#46137C"/>
</g>
<defs>
<clipPath id="clip0_2824_708">
<rect width="22" height="22" fill="white"/>
</clipPath>
</defs>
</svg>
