<svg xmlns="http://www.w3.org/2000/svg" width="28" height="21" viewBox="0 0 28 21" fill="none">
    <path d="M2.625 0C1.92881 0 1.26113 0.276561 0.768845 0.768844C0.276562 1.26113 0 1.92881 0 2.625V6.125C0 6.82119 0.276562 7.48887 0.768845 7.98116C1.26113 8.47344 1.92881 8.75 2.625 8.75H6.125C6.82119 8.75 7.48887 8.47344 7.98116 7.98116C8.47344 7.48887 8.75 6.82119 8.75 6.125V2.625C8.75 1.92881 8.47344 1.26113 7.98116 0.768844C7.48887 0.276561 6.82119 0 6.125 0H2.625ZM13.125 1.75C12.8929 1.75 12.6704 1.84219 12.5063 2.00628C12.3422 2.17038 12.25 2.39294 12.25 2.625C12.25 2.85706 12.3422 3.07962 12.5063 3.24372C12.6704 3.40781 12.8929 3.5 13.125 3.5H27.125C27.3571 3.5 27.5796 3.40781 27.7437 3.24372C27.9078 3.07962 28 2.85706 28 2.625C28 2.39294 27.9078 2.17038 27.7437 2.00628C27.5796 1.84219 27.3571 1.75 27.125 1.75H13.125ZM13.125 5.25C12.8929 5.25 12.6704 5.34219 12.5063 5.50628C12.3422 5.67038 12.25 5.89294 12.25 6.125C12.25 6.35706 12.3422 6.57962 12.5063 6.74372C12.6704 6.90781 12.8929 7 13.125 7H23.625C23.8571 7 24.0796 6.90781 24.2437 6.74372C24.4078 6.57962 24.5 6.35706 24.5 6.125C24.5 5.89294 24.4078 5.67038 24.2437 5.50628C24.0796 5.34219 23.8571 5.25 23.625 5.25H13.125ZM2.625 12.25C1.92881 12.25 1.26113 12.5266 0.768845 13.0188C0.276562 13.5111 0 14.1788 0 14.875V18.375C0 19.0712 0.276562 19.7389 0.768845 20.2312C1.26113 20.7234 1.92881 21 2.625 21H6.125C6.82119 21 7.48887 20.7234 7.98116 20.2312C8.47344 19.7389 8.75 19.0712 8.75 18.375V14.875C8.75 14.1788 8.47344 13.5111 7.98116 13.0188C7.48887 12.5266 6.82119 12.25 6.125 12.25H2.625ZM13.125 14C12.8929 14 12.6704 14.0922 12.5063 14.2563C12.3422 14.4204 12.25 14.6429 12.25 14.875C12.25 15.1071 12.3422 15.3296 12.5063 15.4937C12.6704 15.6578 12.8929 15.75 13.125 15.75H27.125C27.3571 15.75 27.5796 15.6578 27.7437 15.4937C27.9078 15.3296 28 15.1071 28 14.875C28 14.6429 27.9078 14.4204 27.7437 14.2563C27.5796 14.0922 27.3571 14 27.125 14H13.125ZM13.125 17.5C12.8929 17.5 12.6704 17.5922 12.5063 17.7563C12.3422 17.9204 12.25 18.1429 12.25 18.375C12.25 18.6071 12.3422 18.8296 12.5063 18.9937C12.6704 19.1578 12.8929 19.25 13.125 19.25H23.625C23.8571 19.25 24.0796 19.1578 24.2437 18.9937C24.4078 18.8296 24.5 18.6071 24.5 18.375C24.5 18.1429 24.4078 17.9204 24.2437 17.7563C24.0796 17.5922 23.8571 17.5 23.625 17.5H13.125Z" fill="#C5C5C5"/>
</svg>