<svg xmlns="http://www.w3.org/2000/svg" width="16" height="17" viewBox="0 0 16 17" fill="none">
  <path d="M8 17C9.26142 17 10.2846 16.0487 10.2846 14.875H5.71536C5.71536 16.0487 6.73857 17 8 17ZM15.6925 12.0292C15.0025 11.3399 13.7114 10.3029 13.7114 6.90625C13.7114 4.32637 11.7657 2.26113 9.14214 1.75445V1.0625C9.14214 0.475801 8.63071 0 8 0C7.36929 0 6.85786 0.475801 6.85786 1.0625V1.75445C4.2343 2.26113 2.28859 4.32637 2.28859 6.90625C2.28859 10.3029 0.997522 11.3399 0.307524 12.0292C0.0932387 12.2433 -0.00176102 12.4993 2.46924e-05 12.75C0.00395325 13.2945 0.463595 13.8125 1.14645 13.8125H14.8536C15.5364 13.8125 15.9964 13.2945 16 12.75C16.0018 12.4993 15.9068 12.243 15.6925 12.0292Z" fill="#480078" fill-opacity="0.4"/>
</svg>