<svg width="248" height="221" viewBox="0 0 248 221" fill="none" xmlns="http://www.w3.org/2000/svg">
<g id="undraw_setup_wizard_re_nday 1" clip-path="url(#clip0_2735_203)">
<path id="Vector" d="M53.5446 68.0488C52.8801 68.0488 52.2428 68.3128 51.7729 68.7827C51.303 69.2526 51.0391 69.8899 51.0391 70.5544C51.0391 71.2189 51.303 71.8562 51.7729 72.326C52.2428 72.7959 52.8801 73.0599 53.5446 73.0599H85.0392V71.9669C85.0391 71.1901 85.2319 70.4254 85.6003 69.7416C85.9688 69.0577 86.5013 68.4761 87.15 68.0488H53.5446Z" fill="#D6A4DE"/>
<path id="Vector_2" d="M82.2031 62.4115H71.5546C70.8901 62.4115 70.2528 62.1475 69.7829 61.6776C69.313 61.2077 69.0491 60.5704 69.0491 59.9059C69.0491 59.2414 69.313 58.6041 69.7829 58.1342C70.2528 57.6644 70.8901 57.4004 71.5546 57.4004H82.2031C82.8676 57.4004 83.5049 57.6644 83.9748 58.1342C84.4447 58.6041 84.7087 59.2414 84.7087 59.9059C84.7087 60.5704 84.4447 61.2077 83.9748 61.6776C83.5049 62.1475 82.8676 62.4115 82.2031 62.4115Z" fill="#D6A4DE"/>
<path id="Vector_3" d="M58.3205 44.5595H16.9792C16.3147 44.5595 15.6774 44.2956 15.2075 43.8257C14.7376 43.3558 14.4736 42.7185 14.4736 42.054C14.4736 41.3895 14.7376 40.7522 15.2075 40.2823C15.6774 39.8124 16.3147 39.5485 16.9792 39.5485H58.3205C58.985 39.5485 59.6223 39.8124 60.0922 40.2823C60.5621 40.7522 60.826 41.3895 60.826 42.054C60.826 42.7185 60.5621 43.3558 60.0922 43.8257C59.6223 44.2956 58.985 44.5595 58.3205 44.5595Z" fill="#D6A4DE"/>
<path id="Vector_4" d="M40.312 33.911H34.9877C34.3232 33.911 33.6859 33.647 33.216 33.1771C32.7462 32.7072 32.4822 32.0699 32.4822 31.4054C32.4822 30.7409 32.7462 30.1036 33.216 29.6338C33.6859 29.1639 34.3232 28.8999 34.9877 28.8999H40.312C40.9765 28.8999 41.6138 29.1639 42.0837 29.6338C42.5535 30.1036 42.8175 30.7409 42.8175 31.4054C42.8175 32.0699 42.5535 32.7072 42.0837 33.1771C41.6138 33.647 40.9765 33.911 40.312 33.911Z" fill="#D6A4DE"/>
<path id="Vector_5" d="M84.7247 118.44H45.7518C44.3402 118.438 42.9868 117.877 41.9887 116.879C40.9905 115.88 40.4291 114.527 40.4275 113.115V51.4668C40.4291 50.0552 40.9905 48.7019 41.9887 47.7038C42.9868 46.7056 44.3402 46.1442 45.7518 46.1426H108.006C109.418 46.1442 110.771 46.7056 111.769 47.7038C112.767 48.7019 113.329 50.0552 113.33 51.4668V66.7467H112.704V51.4668C112.703 50.2213 112.207 49.0272 111.326 48.1465C110.446 47.2658 109.252 46.7704 108.006 46.769H45.7518C44.5062 46.7704 43.3121 47.2658 42.4314 48.1465C41.5507 49.0272 41.0553 50.2213 41.0539 51.4668V113.115C41.0553 114.361 41.5507 115.555 42.4314 116.436C43.3121 117.317 44.5062 117.812 45.7518 117.813H84.7247V118.44Z" fill="#D6A4DE"/>
<path id="Vector_6" d="M40.7408 81.5345H12.3313C10.9197 81.5329 9.56643 80.9715 8.56828 79.9733C7.57013 78.9752 7.00867 77.6219 7.00708 76.2103V26.0812C7.00867 24.6696 7.57013 23.3163 8.56828 22.3182C9.56643 21.32 10.9197 20.7585 12.3313 20.757H62.9686C64.3802 20.7585 65.7336 21.32 66.7317 22.3182C67.7299 23.3163 68.2913 24.6696 68.2929 26.0812V46.4558H67.6665V26.0812C67.6651 24.8357 67.1697 23.6416 66.289 22.7609C65.4083 21.8802 64.2142 21.3848 62.9686 21.3833H12.3313C11.0858 21.3848 9.89172 21.8802 9.011 22.7609C8.13028 23.6416 7.63487 24.8357 7.63346 26.0812V76.2103C7.63487 77.4558 8.13028 78.6499 9.011 79.5306C9.89172 80.4113 11.0858 80.9067 12.3313 80.9082H40.7408V81.5345Z" fill="#D6A4DE"/>
<path id="Vector_7" d="M167.546 68.0488C168.195 68.4761 168.728 69.0577 169.096 69.7416C169.465 70.4254 169.657 71.1901 169.657 71.9669V73.0599H201.152C201.816 73.0599 202.454 72.7959 202.923 72.326C203.393 71.8562 203.657 71.2189 203.657 70.5544C203.657 69.8899 203.393 69.2526 202.923 68.7827C202.454 68.3128 201.816 68.0488 201.152 68.0488H167.546Z" fill="#D6A4DE"/>
<path id="Vector_8" d="M169.988 59.9059C169.989 59.2416 170.253 58.6048 170.722 58.1351C171.192 57.6654 171.829 57.4012 172.493 57.4004H183.142C183.806 57.4004 184.444 57.6644 184.914 58.1342C185.383 58.6041 185.647 59.2414 185.647 59.9059C185.647 60.5704 185.383 61.2077 184.914 61.6776C184.444 62.1475 183.806 62.4115 183.142 62.4115H172.493C171.829 62.4107 171.192 62.1465 170.722 61.6768C170.253 61.2071 169.989 60.5702 169.988 59.9059Z" fill="#D6A4DE"/>
<path id="Vector_9" d="M193.87 42.054C193.871 41.3897 194.135 40.7529 194.605 40.2832C195.075 39.8134 195.712 39.5492 196.376 39.5485H237.717C238.382 39.5485 239.019 39.8124 239.489 40.2823C239.959 40.7522 240.223 41.3895 240.223 42.054C240.223 42.7185 239.959 43.3558 239.489 43.8257C239.019 44.2956 238.382 44.5595 237.717 44.5595H196.376C195.712 44.5588 195.075 44.2946 194.605 43.8248C194.135 43.3551 193.871 42.7183 193.87 42.054Z" fill="#D6A4DE"/>
<path id="Vector_10" d="M211.879 31.4054C211.88 30.7412 212.144 30.1043 212.614 29.6346C213.083 29.1649 213.72 28.9007 214.384 28.8999H219.709C220.373 28.8999 221.011 29.1639 221.48 29.6338C221.95 30.1036 222.214 30.7409 222.214 31.4054C222.214 32.0699 221.95 32.7072 221.48 33.1771C221.011 33.647 220.373 33.911 219.709 33.911H214.384C213.72 33.9102 213.083 33.646 212.614 33.1763C212.144 32.7066 211.88 32.0697 211.879 31.4054Z" fill="#D6A4DE"/>
<path id="Vector_11" d="M169.972 118.44H208.945C210.356 118.438 211.71 117.877 212.708 116.879C213.706 115.88 214.267 114.527 214.269 113.115V51.4668C214.267 50.0552 213.706 48.7019 212.708 47.7038C211.71 46.7056 210.356 46.1442 208.945 46.1426H146.69C145.279 46.1442 143.926 46.7056 142.927 47.7038C141.929 48.7019 141.368 50.0552 141.366 51.4668V66.7467H141.993V51.4668C141.994 50.2213 142.489 49.0272 143.37 48.1465C144.251 47.2658 145.445 46.7704 146.69 46.769H208.945C210.19 46.7704 211.384 47.2658 212.265 48.1465C213.146 49.0272 213.641 50.2213 213.643 51.4668V113.115C213.641 114.361 213.146 115.555 212.265 116.436C211.384 117.317 210.19 117.812 208.945 117.813H169.972V118.44Z" fill="#D6A4DE"/>
<path id="Vector_12" d="M213.956 81.5345H242.365C243.777 81.5329 245.13 80.9715 246.128 79.9733C247.127 78.9752 247.688 77.6219 247.69 76.2103V26.0812C247.688 24.6696 247.127 23.3163 246.128 22.3182C245.13 21.32 243.777 20.7585 242.365 20.757H191.728C190.316 20.7585 188.963 21.32 187.965 22.3182C186.967 23.3163 186.405 24.6696 186.404 26.0812V46.4558H187.03V26.0812C187.032 24.8357 187.527 23.6416 188.408 22.7609C189.288 21.8802 190.483 21.3848 191.728 21.3833H242.365C243.611 21.3848 244.805 21.8802 245.686 22.7609C246.566 23.6416 247.062 24.8357 247.063 26.0812V76.2103C247.062 77.4558 246.566 78.6499 245.686 79.5306C244.805 80.4113 243.611 80.9067 242.365 80.9082H213.956V81.5345Z" fill="#D6A4DE"/>
<path id="Vector_13" d="M164.828 66.6427H89.7371C88.3259 66.6455 86.9733 67.2074 85.9754 68.2052C84.9775 69.2031 84.4156 70.5557 84.4128 71.967V146.347C84.4143 147.759 84.9757 149.112 85.9739 150.11C86.9721 151.108 88.3255 151.67 89.7371 151.671H164.828C166.24 151.67 167.593 151.108 168.591 150.11C169.589 149.112 170.151 147.759 170.152 146.347V71.967C170.151 70.5553 169.589 69.2019 168.591 68.2038C167.593 67.2056 166.24 66.6442 164.828 66.6427ZM169.526 146.347C169.524 147.592 169.029 148.786 168.148 149.667C167.267 150.548 166.073 151.043 164.828 151.045H89.7371C88.4916 151.043 87.2976 150.548 86.4169 149.667C85.5362 148.786 85.0407 147.592 85.0392 146.347V71.967C85.0411 70.7216 85.5367 69.5278 86.4173 68.6472C87.2979 67.7666 88.4917 67.271 89.7371 67.2691H164.828C166.073 67.2706 167.267 67.766 168.148 68.6467C169.029 69.5274 169.524 70.7215 169.526 71.967V146.347Z" fill="#263238"/>
<path id="Vector_14" d="M140.753 132.566H113.506C112.841 132.566 112.204 132.302 111.734 131.833C111.264 131.363 111 130.725 111 130.061C111 129.396 111.264 128.759 111.734 128.289C112.204 127.819 112.841 127.555 113.506 127.555H140.753C141.418 127.555 142.055 127.819 142.525 128.289C142.995 128.759 143.259 129.396 143.259 130.061C143.259 130.725 142.995 131.363 142.525 131.833C142.055 132.302 141.418 132.566 140.753 132.566Z" fill="#D6A4DE"/>
<path id="Vector_15" d="M37.6498 14.535C36.2124 14.535 34.8073 14.1087 33.6122 13.3102C32.4171 12.5116 31.4856 11.3766 30.9355 10.0486C30.3855 8.72065 30.2416 7.2594 30.522 5.84965C30.8024 4.4399 31.4946 3.14496 32.5109 2.12859C33.5273 1.11222 34.8223 0.420058 36.232 0.139644C37.6418 -0.140771 39.103 0.0031498 40.431 0.55321C41.7589 1.10327 42.894 2.03476 43.6925 3.2299C44.4911 4.42503 44.9173 5.83012 44.9173 7.26749C44.9151 9.19429 44.1487 11.0415 42.7863 12.404C41.4238 13.7664 39.5766 14.5328 37.6498 14.535ZM37.6498 0.626387C36.3363 0.626395 35.0523 1.0159 33.9602 1.74563C32.8681 2.47537 32.0169 3.51257 31.5142 4.72608C31.0116 5.93958 30.8801 7.27488 31.1363 8.56313C31.3926 9.85138 32.0251 11.0347 32.9539 11.9635C33.8826 12.8922 35.066 13.5247 36.3542 13.781C37.6425 14.0372 38.9778 13.9057 40.1913 13.4031C41.4048 12.9004 42.442 12.0492 43.1717 10.9571C43.9014 9.86497 44.2909 8.58098 44.2909 7.26749C44.2889 5.50677 43.5886 3.81873 42.3436 2.57371C41.0986 1.32869 39.4105 0.628369 37.6498 0.626387Z" fill="#D6A4DE"/>
<path id="Path 395" d="M36.9608 9.92034C36.8043 9.92061 36.652 9.86999 36.5269 9.77613L36.5191 9.77031L34.8847 8.52008C34.8091 8.46205 34.7455 8.38967 34.6978 8.30709C34.6501 8.22451 34.6191 8.13334 34.6066 8.03879C34.5941 7.94423 34.6004 7.84814 34.625 7.756C34.6497 7.66386 34.6922 7.57747 34.7502 7.50178C34.8083 7.42609 34.8806 7.36256 34.9632 7.31484C35.0458 7.26711 35.137 7.23612 35.2315 7.22363C35.3261 7.21114 35.4222 7.2174 35.5143 7.24204C35.6065 7.26669 35.6928 7.30924 35.7685 7.36727L36.8271 8.17907L39.3287 4.91552C39.3867 4.83985 39.459 4.77636 39.5416 4.72865C39.6241 4.68094 39.7153 4.64996 39.8098 4.63748C39.9043 4.62499 40.0004 4.63125 40.0925 4.65589C40.1846 4.68052 40.2709 4.72306 40.3466 4.78107L40.3313 4.80279L40.3472 4.78123C40.4998 4.89855 40.5997 5.07163 40.6249 5.2625C40.6501 5.45336 40.5985 5.64642 40.4815 5.79931L37.5391 9.63624C37.4711 9.72465 37.3835 9.79619 37.2833 9.8453C37.1832 9.89442 37.073 9.9198 36.9614 9.91948L36.9608 9.92034Z" fill="#D6A4DE"/>
<path id="Vector_16" d="M83.7503 39.9035C82.313 39.9035 80.9079 39.4773 79.7127 38.6787C78.5176 37.8801 77.5861 36.7451 77.0361 35.4171C76.486 34.0892 76.3421 32.6279 76.6226 31.2182C76.903 29.8084 77.5952 28.5135 78.6115 27.4971C79.6279 26.4807 80.9229 25.7886 82.3326 25.5082C83.7424 25.2278 85.2036 25.3717 86.5316 25.9217C87.8595 26.4718 88.9945 27.4033 89.7931 28.5984C90.5917 29.7936 91.0179 31.1987 91.0179 32.636C91.0157 34.5628 90.2493 36.4101 88.8869 37.7725C87.5244 39.135 85.6771 39.9014 83.7503 39.9035ZM83.7503 25.9949C82.4368 25.9949 81.1529 26.3844 80.0607 27.1142C78.9686 27.8439 78.1174 28.8811 77.6148 30.0946C77.1122 31.3081 76.9807 32.6434 77.2369 33.9317C77.4932 35.2199 78.1257 36.4033 79.0545 37.332C79.9832 38.2608 81.1666 38.8933 82.4548 39.1495C83.7431 39.4058 85.0784 39.2742 86.2919 38.7716C87.5054 38.2689 88.5426 37.4177 89.2723 36.3256C90.002 35.2335 90.3915 33.9495 90.3915 32.636C90.3895 30.8753 89.6892 29.1872 88.4441 27.9422C87.1991 26.6972 85.5111 25.9969 83.7503 25.9949Z" fill="#D6A4DE"/>
<path id="Path 395_2" d="M83.0614 35.2889C82.9049 35.2891 82.7526 35.2385 82.6275 35.1447L82.6197 35.1388L80.9853 33.8886C80.8325 33.7714 80.7324 33.5983 80.7072 33.4073C80.682 33.2163 80.7336 33.0232 80.8508 32.8703C80.968 32.7174 81.1411 32.6174 81.3321 32.5922C81.5231 32.5669 81.7163 32.6186 81.8691 32.7358L82.9277 33.5476L85.4293 30.284C85.4873 30.2084 85.5596 30.1449 85.6422 30.0972C85.7247 30.0495 85.8158 30.0185 85.9104 30.006C86.0049 29.9935 86.1009 29.9998 86.193 30.0244C86.2851 30.0491 86.3715 30.0916 86.4472 30.1496L86.4318 30.1713L86.4478 30.1498C86.6004 30.2671 86.7003 30.4402 86.7255 30.631C86.7507 30.8219 86.6991 31.015 86.5821 31.1678L83.6397 35.0048C83.5716 35.0932 83.4841 35.1647 83.3839 35.2138C83.2837 35.263 83.1736 35.2883 83.062 35.288L83.0614 35.2889Z" fill="#D6A4DE"/>
<path id="Vector_17" d="M127.289 60.2611C122.357 60.1769 120.115 56.4345 120.115 52.993C120.116 49.5514 122.357 45.8094 127.279 45.7261H127.289C132.211 45.81 134.453 49.5524 134.453 52.994C134.453 56.4356 132.211 60.1777 127.289 60.2611ZM127.284 46.3525C122.789 46.4311 120.742 49.8492 120.742 52.993C120.741 56.138 122.79 59.5579 127.289 59.6347C131.777 59.5585 133.826 56.1389 133.826 52.994C133.827 49.8503 131.779 46.4321 127.284 46.3525Z" fill="#BA68C8"/>
<path id="Vector_18" d="M128.915 53.3882C130.173 55.5722 126.722 56.4252 125.401 55.1095L125.732 54.4029C127.879 56.2571 129.77 53.0454 126.491 53.3506V52.5763C129.494 52.8185 127.807 49.7963 125.807 51.5841L125.484 50.8776C127.114 49.1859 130.773 51.2315 128.19 52.9221C128.478 52.9895 128.734 53.1541 128.915 53.3882Z" fill="#BA68C8"/>
<path id="Vector_19" d="M171.444 39.9035C170.007 39.9035 168.602 39.4773 167.407 38.6787C166.211 37.8801 165.28 36.7451 164.73 35.4171C164.18 34.0892 164.036 32.6279 164.316 31.2182C164.597 29.8084 165.289 28.5135 166.305 27.4971C167.322 26.4807 168.617 25.7886 170.026 25.5082C171.436 25.2278 172.897 25.3717 174.225 25.9217C175.553 26.4718 176.688 27.4033 177.487 28.5984C178.286 29.7936 178.712 31.1987 178.712 32.636C178.71 34.5628 177.943 36.4101 176.581 37.7725C175.218 39.135 173.371 39.9014 171.444 39.9035ZM171.444 25.9949C170.131 25.9949 168.847 26.3844 167.755 27.1142C166.662 27.8439 165.811 28.8811 165.309 30.0946C164.806 31.3081 164.674 32.6434 164.931 33.9317C165.187 35.2199 165.82 36.4033 166.748 37.332C167.677 38.2608 168.86 38.8933 170.149 39.1495C171.437 39.4058 172.772 39.2742 173.986 38.7716C175.199 38.2689 176.236 37.4177 176.966 36.3256C177.696 35.2335 178.085 33.9495 178.085 32.636C178.083 30.8753 177.383 29.1872 176.138 27.9422C174.893 26.6972 173.205 25.9969 171.444 25.9949Z" fill="#D6A4DE"/>
<path id="Vector_20" d="M173.462 34.2671H172.703V35.3119H171.756V34.2671H169.426V33.5454L171.929 29.9601H172.703V33.508H173.462V34.2671ZM171.756 33.508V31.4708L170.343 33.508H171.756Z" fill="#D6A4DE"/>
<path id="Vector_21" d="M217.047 14.535C215.609 14.535 214.204 14.1087 213.009 13.3102C211.814 12.5116 210.883 11.3765 210.332 10.0486C209.782 8.72062 209.639 7.25938 209.919 5.84963C210.199 4.43988 210.892 3.14494 211.908 2.12858C212.924 1.11221 214.219 0.420051 215.629 0.13964C217.039 -0.140771 218.5 0.00315447 219.828 0.553216C221.156 1.10328 222.291 2.03477 223.089 3.2299C223.888 4.42503 224.314 5.83012 224.314 7.26749C224.312 9.19429 223.546 11.0415 222.183 12.404C220.821 13.7664 218.974 14.5328 217.047 14.535ZM217.047 0.626388C215.733 0.626404 214.449 1.01591 213.357 1.74565C212.265 2.4754 211.414 3.5126 210.911 4.72611C210.409 5.93961 210.277 7.27491 210.533 8.56316C210.79 9.8514 211.422 11.0347 212.351 11.9635C213.28 12.8923 214.463 13.5248 215.751 13.781C217.039 14.0372 218.375 13.9057 219.588 13.4031C220.802 12.9004 221.839 12.0492 222.569 10.9571C223.298 9.86496 223.688 8.58098 223.688 7.26749C223.686 5.50676 222.986 3.81872 221.741 2.5737C220.495 1.32868 218.807 0.628361 217.047 0.626388Z" fill="#D6A4DE"/>
<path id="Vector_22" d="M218.129 6.70753C218.381 6.84657 218.587 7.05538 218.723 7.30884C218.867 7.5832 218.939 7.88959 218.933 8.19948C218.94 8.52516 218.857 8.84638 218.693 9.12789C218.529 9.39937 218.288 9.61638 218.001 9.75167C217.675 9.90517 217.317 9.98106 216.956 9.97341C216.618 9.97311 216.283 9.91594 215.964 9.80429C215.668 9.70858 215.395 9.55392 215.16 9.34964L215.483 8.64297C215.903 8.98971 216.427 9.1856 216.971 9.19931C217.251 9.21847 217.527 9.12816 217.742 8.94744C217.915 8.74952 218.01 8.49502 218.009 8.23194C218.007 7.96885 217.91 7.71536 217.734 7.51927C217.636 7.42827 217.521 7.3578 217.395 7.31198C217.269 7.26616 217.135 7.24592 217.001 7.25243C216.798 7.2511 216.596 7.29073 216.408 7.36896C216.222 7.44663 216.056 7.56324 215.919 7.7109H215.333V4.56152H218.685V5.31316H216.28V6.7713C216.564 6.58189 216.9 6.4848 217.242 6.49328C217.551 6.48678 217.857 6.5606 218.129 6.70753Z" fill="#D6A4DE"/>
<path id="Vector_23" d="M46.4133 163.126C46.2232 162.707 46.1274 162.251 46.1325 161.79C46.1377 161.33 46.2437 160.876 46.4432 160.461C46.6427 160.046 46.9307 159.68 47.287 159.389C47.6433 159.097 48.0592 158.887 48.5054 158.774L49.4548 147.622L54.0209 151.224L52.4193 161.262C52.5603 162.024 52.4167 162.811 52.0159 163.475C51.615 164.138 50.9848 164.632 50.2444 164.862C49.5041 165.091 48.7052 165.042 47.9991 164.722C47.293 164.402 46.7287 163.834 46.4133 163.126Z" fill="#A36E6A"/>
<path id="Vector_24" d="M49.35 157.603C49.0214 157.56 48.7187 157.402 48.495 157.157C48.2714 156.912 48.1413 156.597 48.1274 156.266L47.5988 143.61C47.4088 139.062 48.3345 134.536 50.2953 130.427L54.9831 120.604C55.2971 120.013 55.7476 119.506 56.297 119.124C56.8465 118.742 57.4791 118.497 58.1423 118.409C58.7861 118.318 59.4422 118.385 60.0548 118.602C60.6675 118.82 61.2185 119.182 61.6609 119.658C61.8854 119.898 62.087 120.158 62.2632 120.436C62.6169 121.009 62.8217 121.662 62.859 122.335C62.8963 123.008 62.7649 123.68 62.4769 124.289L55.2887 143.926L54.7356 156.719C54.7272 156.913 54.6789 157.103 54.5937 157.277C54.5084 157.452 54.3881 157.607 54.2403 157.732C54.0925 157.858 53.9203 157.952 53.7345 158.008C53.5487 158.064 53.3534 158.081 53.1608 158.058L49.3686 157.606L49.35 157.603Z" fill="#BA68C8"/>
<path id="Vector_25" d="M35.9011 212.896L39.417 214.439L47.0426 201.612L41.8536 199.335L35.9011 212.896Z" fill="#A36E6A"/>
<path id="Vector_26" d="M35.5081 211.354L42.4321 214.394C43.0116 214.648 43.5355 215.014 43.9735 215.471C44.4116 215.928 44.7553 216.466 44.9852 217.056C45.215 217.645 45.3265 218.275 45.3133 218.907C45.3 219.54 45.1622 220.164 44.9079 220.743L44.8449 220.887L33.5083 215.911L35.5081 211.354Z" fill="#263238"/>
<path id="Vector_27" d="M83.1029 217.164H86.9427L88.7692 202.354L83.1023 202.355L83.1029 217.164Z" fill="#A36E6A"/>
<path id="Vector_28" d="M82.1235 215.911L89.6852 215.911C90.318 215.911 90.945 216.035 91.5296 216.277C92.1143 216.52 92.6455 216.875 93.093 217.322C93.5405 217.769 93.8954 218.301 94.1376 218.885C94.3798 219.47 94.5044 220.097 94.5044 220.729V220.886L82.1238 220.887L82.1235 215.911Z" fill="#263238"/>
<path id="Vector_29" d="M44.4294 212.954C44.2817 212.954 44.135 212.93 43.9945 212.885L37.484 210.792C37.1324 210.678 36.8396 210.43 36.6683 210.102C36.497 209.775 36.4608 209.393 36.5674 209.039L58.1574 140.288L74.329 137.117L74.3859 137.21C85.0772 154.607 88.6461 181.182 90.91 209.34C90.9377 209.708 90.8211 210.072 90.5849 210.355C90.3486 210.638 90.0114 210.818 89.6447 210.857L82.5271 211.568C82.1949 211.603 81.8613 211.518 81.5862 211.329C81.3111 211.14 81.1127 210.858 81.0268 210.535L67.9943 164.431C67.9687 164.337 67.9145 164.254 67.8393 164.192C67.764 164.13 67.6713 164.093 67.5741 164.086C67.4769 164.079 67.38 164.103 67.2967 164.153C67.2135 164.204 67.1481 164.279 67.1095 164.369L45.72 212.101C45.6119 212.354 45.432 212.57 45.2026 212.721C44.9732 212.873 44.7044 212.954 44.4294 212.954Z" fill="#263238"/>
<path id="Vector_30" d="M66.5126 112.759C70.761 112.759 74.2049 109.315 74.2049 105.066C74.2049 100.818 70.761 97.374 66.5126 97.374C62.2643 97.374 58.8203 100.818 58.8203 105.066C58.8203 109.315 62.2643 112.759 66.5126 112.759Z" fill="#A36E6A"/>
<path id="Vector_31" d="M56.7817 142.324L56.729 142.214C56.6932 142.139 53.1492 134.62 53.4789 125.948C53.5881 123.102 54.7809 120.405 56.8133 118.409C58.8457 116.413 61.5639 115.269 64.4119 115.211C67.0366 115.16 69.5953 116.036 71.6373 117.686C73.6792 119.336 75.0735 121.654 75.5745 124.231C76.5622 129.273 76.5375 134.048 75.501 138.424L75.4779 138.521L75.3798 138.541L56.7817 142.324Z" fill="#BA68C8"/>
<path id="Vector_32" d="M96.0008 153.176C95.5453 153.108 95.1102 152.942 94.726 152.688C94.3417 152.435 94.0178 152.1 93.777 151.707C93.5362 151.315 93.3844 150.874 93.3322 150.417C93.28 149.959 93.3288 149.496 93.4751 149.06L84.615 142.222L90.1161 140.334L97.6864 147.117C98.4035 147.411 98.9877 147.958 99.3284 148.655C99.669 149.351 99.7424 150.148 99.5347 150.895C99.3269 151.642 98.8524 152.286 98.2011 152.707C97.5498 153.127 96.7669 153.294 96.0008 153.176Z" fill="#A36E6A"/>
<path id="Vector_33" d="M74.258 138.101L74.2375 138.068L64.8971 122.941C64.5705 122.358 64.388 121.704 64.3646 121.036C64.3413 120.367 64.4777 119.702 64.7627 119.097C65.035 118.507 65.4461 117.991 65.9608 117.594C66.4755 117.196 67.0786 116.929 67.7188 116.816C68.0418 116.757 68.3696 116.728 68.698 116.73C69.3719 116.744 70.0317 116.925 70.6177 117.258C71.2037 117.591 71.6971 118.066 72.0533 118.638L84.6677 135.316L95.1225 142.71C95.2809 142.822 95.4145 142.965 95.5149 143.131C95.6153 143.297 95.6803 143.482 95.7058 143.675C95.7314 143.867 95.717 144.063 95.6634 144.249C95.6099 144.436 95.5185 144.609 95.3948 144.759L92.9608 147.701C92.7481 147.96 92.4498 148.135 92.1198 148.193C91.7898 148.251 91.4499 148.189 91.1614 148.019L74.258 138.101Z" fill="#BA68C8"/>
<path id="Vector_34" d="M65.137 104.589C65.7039 103.656 66.955 103.393 68.0412 103.499C69.1275 103.606 70.1838 103.987 71.2752 103.979C74.3057 103.956 76.6449 100.262 75.3708 97.5123C74.3259 95.2572 71.7162 94.267 69.3554 93.4898C64.4057 91.8603 58.72 90.2947 54.2284 92.9367C52.797 93.8036 51.6231 95.0369 50.8278 96.5092C50.0325 97.9815 49.6446 99.6395 49.7044 101.312C49.8054 103.391 50.6017 105.527 49.9282 107.497C49.1513 109.769 46.6878 110.989 44.3597 111.578C40.2786 112.612 35.9756 112.446 31.869 113.373C27.7624 114.3 23.5542 116.763 22.4473 120.825C21.7202 123.493 22.4789 126.365 23.7353 128.828C25.0173 131.341 26.7987 133.567 28.9707 135.367C31.1426 137.168 33.6593 138.506 36.3666 139.3C39.0738 140.095 41.9147 140.328 44.7152 139.985C47.5157 139.643 50.2169 138.733 52.6532 137.31C57.6179 134.411 61.2021 129.512 63.339 124.175C64.5506 121.061 65.4035 117.82 65.8814 114.514C66.3599 111.419 65.9538 108.291 65.087 105.281C65.046 105.169 65.0293 105.049 65.0379 104.93C65.0465 104.811 65.0803 104.694 65.137 104.589Z" fill="#263238"/>
<path id="Vector_35" d="M119.639 221H0.313192C0.230128 221 0.150466 220.967 0.0917315 220.908C0.0329967 220.85 0 220.77 0 220.687C0 220.604 0.0329967 220.524 0.0917315 220.465C0.150466 220.407 0.230128 220.374 0.313192 220.374H119.639C119.722 220.374 119.802 220.407 119.861 220.465C119.919 220.524 119.952 220.604 119.952 220.687C119.952 220.77 119.919 220.85 119.861 220.908C119.802 220.967 119.722 221 119.639 221Z" fill="#263238"/>
<rect id="Rectangle 203" x="93" y="106" width="68" height="5" rx="2.5" fill="#D6A4DE"/>
<rect id="Rectangle 205" x="93" y="117" width="68" height="5" rx="2.5" fill="#D6A4DE"/>
<rect id="Rectangle 204" x="93" y="91" width="68" height="5" rx="2.5" fill="#D6A4DE"/>
</g>
<defs>
<clipPath id="clip0_2735_203">
<rect width="247.69" height="221" fill="white"/>
</clipPath>
</defs>
</svg>
