<svg xmlns="http://www.w3.org/2000/svg" width="14" height="14" viewBox="0 0 14 14" fill="none">
  <path d="M2.1 6.3001C2.87219 6.3001 3.5 5.67229 3.5 4.9001C3.5 4.12791 2.87219 3.5001 2.1 3.5001C1.32781 3.5001 0.7 4.12791 0.7 4.9001C0.7 5.67229 1.32781 6.3001 2.1 6.3001ZM11.9 6.3001C12.6722 6.3001 13.3 5.67229 13.3 4.9001C13.3 4.12791 12.6722 3.5001 11.9 3.5001C11.1278 3.5001 10.5 4.12791 10.5 4.9001C10.5 5.67229 11.1278 6.3001 11.9 6.3001ZM12.6 7.0001H11.2C10.815 7.0001 10.4672 7.15541 10.2134 7.40697C11.095 7.89041 11.7206 8.76322 11.8562 9.8001H13.3C13.6872 9.8001 14 9.48729 14 9.1001V8.4001C14 7.62791 13.3722 7.0001 12.6 7.0001ZM7 7.0001C8.35406 7.0001 9.45 5.90416 9.45 4.5501C9.45 3.19604 8.35406 2.1001 7 2.1001C5.64594 2.1001 4.55 3.19604 4.55 4.5501C4.55 5.90416 5.64594 7.0001 7 7.0001ZM8.68 7.7001H8.49844C8.04344 7.91885 7.53813 8.0501 7 8.0501C6.46187 8.0501 5.95875 7.91885 5.50156 7.7001H5.32C3.92875 7.7001 2.8 8.82885 2.8 10.2201V10.8501C2.8 11.4298 3.27031 11.9001 3.85 11.9001H10.15C10.7297 11.9001 11.2 11.4298 11.2 10.8501V10.2201C11.2 8.82885 10.0712 7.7001 8.68 7.7001ZM3.78656 7.40697C3.53281 7.15541 3.185 7.0001 2.8 7.0001H1.4C0.627813 7.0001 0 7.62791 0 8.4001V9.1001C0 9.48729 0.312812 9.8001 0.7 9.8001H2.14156C2.27938 8.76322 2.905 7.89041 3.78656 7.40697Z" fill="#C2C2C2"/>
</svg>