<svg xmlns="http://www.w3.org/2000/svg" width="16" height="17" viewBox="0 0 16 17" fill="none">
  <path d="M15.8825 13.2309L8.28384 16.9428C8.19422 16.9805 8.09772 17 8.00019 17C7.90267 17 7.80617 16.9805 7.71655 16.9428L0.117461 13.2309C-0.0372201 13.155 -0.0372201 13.0305 0.117461 12.9543L1.93728 12.0671C2.02704 12.0293 2.12367 12.0099 2.22131 12.0099C2.31896 12.0099 2.41559 12.0293 2.50535 12.0671L7.71655 14.6095C7.80611 14.6474 7.90264 14.667 8.00019 14.667C8.09775 14.667 8.19427 14.6474 8.28384 14.6095L13.495 12.0671C13.5847 12.0293 13.6813 12.0099 13.7789 12.0099C13.8765 12.0099 13.973 12.0293 14.0627 12.0671L15.8825 12.9561C16.0392 13.0305 16.0392 13.155 15.8825 13.2309ZM15.8825 8.05006L14.0627 7.16097C13.973 7.12322 13.8765 7.10376 13.7789 7.10376C13.6813 7.10376 13.5847 7.12322 13.495 7.16097L8.28384 9.70642C8.19417 9.74398 8.09769 9.76335 8.00019 9.76335C7.9027 9.76335 7.80621 9.74398 7.71655 9.70642L2.50535 7.16097C2.41559 7.12323 2.31896 7.10378 2.22131 7.10378C2.12367 7.10378 2.02704 7.12323 1.93728 7.16097L0.117461 8.05006C-0.0372201 8.12595 -0.0372201 8.25079 0.117461 8.32744L7.71655 12.0386C7.80617 12.0763 7.90267 12.0958 8.00019 12.0958C8.09772 12.0958 8.19422 12.0763 8.28384 12.0386L15.8825 8.32744C16.0392 8.25079 16.0392 8.12633 15.8825 8.05006ZM0.117461 3.73479L7.71616 7.16097C7.89849 7.23118 8.10112 7.23118 8.28345 7.16097L15.8825 3.73479C16.0372 3.66421 16.0372 3.54923 15.8825 3.47903L8.28345 0.0532258C8.10127 -0.017742 7.89834 -0.017742 7.71616 0.0532258L0.117461 3.47903C-0.0391536 3.54923 -0.0391536 3.66421 0.117461 3.73479Z" fill="#ABABAB"/>
</svg>