<svg width="30" height="28" viewBox="0 0 30 28" fill="none" xmlns="http://www.w3.org/2000/svg">
<g id="Group 272">
<ellipse id="Ellipse 49" cx="15.2418" cy="14" rx="14.6154" ry="14" fill="#68007E"/>
<path id="Vector" d="M19.2436 21C18.6153 21 18.0812 20.7958 17.6414 20.3875C17.2016 19.9792 16.9817 19.4833 16.9817 18.9C16.9817 18.8183 16.988 18.7336 17.0006 18.6459C17.0131 18.5582 17.032 18.4795 17.0571 18.41L11.7416 15.54C11.528 15.715 11.2892 15.8522 11.0254 15.9516C10.7615 16.051 10.485 16.1005 10.196 16.1C9.56768 16.1 9.03362 15.8958 8.5938 15.4875C8.15399 15.0792 7.93408 14.5833 7.93408 14C7.93408 13.4167 8.15399 12.9208 8.5938 12.5125C9.03362 12.1042 9.56768 11.9 10.196 11.9C10.485 11.9 10.7615 11.9497 11.0254 12.0491C11.2892 12.1485 11.528 12.2855 11.7416 12.46L17.0571 9.59C17.032 9.52 17.0131 9.44137 17.0006 9.3541C16.988 9.26683 16.9817 9.18213 16.9817 9.1C16.9817 8.51667 17.2016 8.02083 17.6414 7.6125C18.0812 7.20417 18.6153 7 19.2436 7C19.8719 7 20.406 7.20417 20.8458 7.6125C21.2856 8.02083 21.5055 8.51667 21.5055 9.1C21.5055 9.68333 21.2856 10.1792 20.8458 10.5875C20.406 10.9958 19.8719 11.2 19.2436 11.2C18.9546 11.2 18.6781 11.1505 18.4142 11.0516C18.1504 10.9527 17.9116 10.8155 17.698 10.64L12.3825 13.51C12.4076 13.58 12.4265 13.6589 12.439 13.7466C12.4516 13.8343 12.4579 13.9188 12.4579 14C12.4579 14.0817 12.4516 14.1664 12.439 14.2541C12.4265 14.3418 12.4076 14.4205 12.3825 14.49L17.698 17.36C17.9116 17.185 18.1504 17.048 18.4142 16.9491C18.6781 16.8502 18.9546 16.8005 19.2436 16.8C19.8719 16.8 20.406 17.0042 20.8458 17.4125C21.2856 17.8208 21.5055 18.3167 21.5055 18.9C21.5055 19.4833 21.2856 19.9792 20.8458 20.3875C20.406 20.7958 19.8719 21 19.2436 21ZM19.2436 9.8C19.4572 9.8 19.6364 9.7328 19.7812 9.5984C19.9259 9.464 19.9981 9.29787 19.9976 9.1C19.9976 8.90167 19.9252 8.7353 19.7804 8.6009C19.6357 8.4665 19.4567 8.39953 19.2436 8.4C19.03 8.4 18.8508 8.4672 18.706 8.6016C18.5613 8.736 18.4891 8.90213 18.4896 9.1C18.4896 9.29833 18.562 9.4647 18.7068 9.5991C18.8515 9.7335 19.0305 9.80047 19.2436 9.8ZM10.196 14.7C10.4096 14.7 10.5888 14.6328 10.7336 14.4984C10.8783 14.364 10.9505 14.1979 10.95 14C10.95 13.8017 10.8776 13.6353 10.7328 13.5009C10.5881 13.3665 10.4091 13.2995 10.196 13.3C9.98236 13.3 9.80317 13.3672 9.65841 13.5016C9.51365 13.636 9.44152 13.8021 9.44202 14C9.44202 14.1983 9.5144 14.3647 9.65916 14.4991C9.80392 14.6335 9.98287 14.7005 10.196 14.7ZM19.2436 19.6C19.4572 19.6 19.6364 19.5328 19.7812 19.3984C19.9259 19.264 19.9981 19.0979 19.9976 18.9C19.9976 18.7017 19.9252 18.5353 19.7804 18.4009C19.6357 18.2665 19.4567 18.1995 19.2436 18.2C19.03 18.2 18.8508 18.2672 18.706 18.4016C18.5613 18.536 18.4891 18.7021 18.4896 18.9C18.4896 19.0983 18.562 19.2647 18.7068 19.3991C18.8515 19.5335 19.0305 19.6005 19.2436 19.6Z" fill="white"/>
</g>
</svg>
