<svg width="102" height="17" viewBox="0 0 102 17" fill="none" xmlns="http://www.w3.org/2000/svg">
<g id="Group 268">
<g id="Group 267">
<path id="Vector" d="M8.55696 13.6975L12.707 16.2075C13.467 16.6675 14.397 15.9875 14.197 15.1275L13.097 10.4075L16.767 7.2275C17.437 6.6475 17.077 5.5475 16.197 5.4775L11.367 5.0675L9.47696 0.6075C9.13696 -0.2025 7.97696 -0.2025 7.63696 0.6075L5.74696 5.0575L0.916957 5.4675C0.0369575 5.5375 -0.323043 6.6375 0.346957 7.2175L4.01696 10.3975L2.91696 15.1175C2.71696 15.9775 3.64696 16.6575 4.40696 16.1975L8.55696 13.6975Z" fill="#E4A951"/>
<path id="Vector_2" d="M29.557 13.6975L33.707 16.2075C34.467 16.6675 35.397 15.9875 35.197 15.1275L34.097 10.4075L37.767 7.2275C38.437 6.6475 38.077 5.5475 37.197 5.4775L32.367 5.0675L30.477 0.6075C30.137 -0.2025 28.977 -0.2025 28.637 0.6075L26.747 5.0575L21.917 5.4675C21.037 5.5375 20.677 6.6375 21.347 7.2175L25.017 10.3975L23.917 15.1175C23.717 15.9775 24.647 16.6575 25.407 16.1975L29.557 13.6975Z" fill="#E4A951"/>
<path id="Vector_3" d="M50.557 13.6975L54.707 16.2075C55.467 16.6675 56.397 15.9875 56.197 15.1275L55.097 10.4075L58.767 7.2275C59.437 6.6475 59.077 5.5475 58.197 5.4775L53.367 5.0675L51.477 0.6075C51.137 -0.2025 49.977 -0.2025 49.637 0.6075L47.747 5.0575L42.917 5.4675C42.037 5.5375 41.677 6.6375 42.347 7.2175L46.017 10.3975L44.917 15.1175C44.717 15.9775 45.647 16.6575 46.407 16.1975L50.557 13.6975Z" fill="#E4A951"/>
<path id="Vector_4" d="M71.557 13.6975L75.707 16.2075C76.467 16.6675 77.397 15.9875 77.197 15.1275L76.097 10.4075L79.767 7.2275C80.437 6.6475 80.077 5.5475 79.197 5.4775L74.367 5.0675L72.477 0.6075C72.137 -0.2025 70.977 -0.2025 70.637 0.6075L68.747 5.0575L63.917 5.4675C63.037 5.5375 62.677 6.6375 63.347 7.2175L67.017 10.3975L65.917 15.1175C65.717 15.9775 66.647 16.6575 67.407 16.1975L71.557 13.6975Z" fill="#E4A951"/>
<path id="Vector_5" d="M92.557 13.6975L96.707 16.2075C97.467 16.6675 98.397 15.9875 98.197 15.1275L97.097 10.4075L100.767 7.2275C101.437 6.6475 101.077 5.5475 100.197 5.4775L95.367 5.0675L93.477 0.6075C93.137 -0.2025 91.977 -0.2025 91.637 0.6075L89.747 5.0575L84.917 5.4675C84.037 5.5375 83.677 6.6375 84.347 7.2175L88.017 10.3975L86.917 15.1175C86.717 15.9775 87.647 16.6575 88.407 16.1975L92.557 13.6975Z" fill="#D9D9D9"/>
</g>
</g>
</svg>
