<svg xmlns="http://www.w3.org/2000/svg" width="12" height="13" viewBox="0 0 12 13" fill="none">
  <path d="M0.80394 5.52729L0.19377 6.17141C-0.06459 6.44415 -0.06459 6.88517 0.19377 7.155L5.53413 12.7954C5.79249 13.0682 6.21026 13.0682 6.46587 12.7954L11.8062 7.15791C12.0646 6.88517 12.0646 6.44415 11.8062 6.17431L11.1961 5.53019C10.935 5.25455 10.5089 5.26035 10.2533 5.54179L7.10078 9.03515V0.696351C7.10078 0.310456 6.80669 0 6.44114 0H5.56161C5.19606 0 4.90197 0.310456 4.90197 0.696351V9.03515L1.74668 5.53889C1.49107 5.25455 1.06505 5.24874 0.80394 5.52729Z" fill="#C50000"/>
</svg>