<svg width="28" height="28" viewBox="0 0 28 28" fill="none" xmlns="http://www.w3.org/2000/svg">
<g id="Group 273">
<circle id="Ellipse 48" cx="14" cy="14" r="14" fill="#01833C"/>
<path id="Vector" d="M12.8484 11.5282V9.62424C12.8484 9.45868 12.7799 9.2999 12.658 9.18284C12.5361 9.06577 12.3707 9 12.1983 9C12.0277 9.00069 11.8643 9.06571 11.7432 9.18103L7.19231 13.5507C7.13137 13.6088 7.08301 13.6778 7.05 13.7539C7.01699 13.8299 7 13.9115 7 13.9939C7 14.0763 7.01699 14.1579 7.05 14.234C7.08301 14.3101 7.13137 14.3791 7.19231 14.4372L11.7432 18.8069C11.8345 18.8928 11.9501 18.9509 12.0756 18.9741C12.2011 18.9972 12.3309 18.9844 12.4489 18.9371C12.5668 18.8898 12.6676 18.8102 12.7386 18.7082C12.8097 18.6062 12.8479 18.4864 12.8484 18.3636V16.4285H13.401C14.4282 16.4138 15.4464 16.6139 16.3849 17.0149C17.3234 17.4159 18.1599 18.0082 18.8361 18.7507C18.9176 18.8548 19.031 18.9319 19.1604 18.9711C19.2898 19.0103 19.4288 19.0096 19.5577 18.9692C19.689 18.9266 19.8027 18.8449 19.8822 18.736C19.9617 18.6271 20.003 18.4966 19.9998 18.3636C19.9998 12.6705 14.7468 11.6967 12.8484 11.5282ZM13.401 15.1675C12.9662 15.1662 12.5318 15.1933 12.1008 15.2487C11.9469 15.2711 11.8064 15.3458 11.705 15.4592C11.6036 15.5726 11.548 15.7172 11.5482 15.8667V16.8592L8.57058 13.9939L11.5482 11.1287V12.1212C11.5482 12.2868 11.6167 12.4456 11.7386 12.5626C11.8605 12.6797 12.0259 12.7455 12.1983 12.7455C12.7899 12.7455 17.4708 12.8703 18.485 16.7593C17.0129 15.7172 15.23 15.1589 13.401 15.1675Z" fill="white"/>
</g>
</svg>
