<svg width="56" height="56" viewBox="0 0 56 56" fill="none" xmlns="http://www.w3.org/2000/svg">
<g id="Featured icon">
<path id="Union" fill-rule="evenodd" clip-rule="evenodd" d="M18 33C18 34.1046 18.8954 35 20 35H21.4189H26.0001L27.5588 37.6999C27.6358 37.8332 27.8283 37.8332 27.9053 37.6999L29.464 35H36C37.1046 35 38 34.1046 38 33V21C38 19.8954 37.1046 19 36 19H20C18.8954 19 18 19.8954 18 21V33ZM25.6483 30.9437C25.4975 31.0378 25.308 30.9031 25.3474 30.7297L25.9744 27.9691L23.8823 26.122C23.7508 26.0058 23.8218 25.7887 23.9966 25.7729L26.7411 25.5234L27.8153 22.9392C27.8836 22.7748 28.1164 22.7748 28.1847 22.9392L29.2589 25.5234L32.0034 25.7729C32.1782 25.7887 32.2492 26.0058 32.1177 26.122L30.0256 27.9691L30.6526 30.7297C30.692 30.9031 30.5025 31.0378 30.3517 30.9437L28 29.4766L25.6483 30.9437Z" fill="#DD7EE0"/>
</g>
</svg>
