<svg xmlns="http://www.w3.org/2000/svg" width="45" height="42" viewBox="0 0 45 42" fill="none">
  <ellipse cx="22.3379" cy="21" rx="21.8344" ry="21" fill="#D2C870" fill-opacity="0.21"/>
  <g filter="url(#filter0_d_685_3293)">
    <path d="M25.8219 20.9214C25.9505 20.9786 26.0862 21 26.2148 21C26.5076 21 26.7933 20.8786 27.0004 20.6571L28.6717 18.8571H30.8573C32.0358 18.8571 33 17.8929 33 16.7143V13.1429C33 11.9643 32.0358 11 30.8573 11H25.1434C23.9649 11 23.0007 11.9643 23.0007 13.1429V16.7071C23.0007 17.8857 23.9649 18.85 25.1434 18.85V19.9214C25.1434 20.3714 25.4077 20.7571 25.8219 20.9214ZM24.4292 13.1429C24.4292 12.75 24.7506 12.4286 25.1434 12.4286H30.8573C31.2501 12.4286 31.5715 12.75 31.5715 13.1429V16.7143C31.5715 17.1071 31.2501 17.4286 30.8573 17.4286H28.0432L26.5719 19.0143V17.4286H25.1434C24.7506 17.4286 24.4292 17.1071 24.4292 16.7143V13.1429ZM19.0724 22.4286C17.1011 22.4286 15.5012 20.8286 15.5012 18.8571C15.5012 16.8857 17.1011 15.2857 19.0724 15.2857C21.0437 15.2857 22.6436 16.8857 22.6436 18.8571C22.6436 20.8286 21.0437 22.4286 19.0724 22.4286ZM19.0724 16.7143C17.8939 16.7143 16.9297 17.6786 16.9297 18.8571C16.9297 20.0357 17.8939 21 19.0724 21C20.2509 21 21.2151 20.0357 21.2151 18.8571C21.2151 17.6786 20.2509 16.7143 19.0724 16.7143ZM19.0724 30.9929C17.0011 30.9929 15.4155 30.4214 14.3442 29.3014C12.965 27.8621 12.9971 26.0264 13.0007 25.8457V25.8336C13.0014 24.7571 13.9013 23.8571 15.0155 23.8571H23.1293C24.2363 23.8571 25.1434 24.7564 25.1434 25.8693V25.8764C25.1463 26.0064 25.1863 27.855 23.8006 29.3086C22.7293 30.4293 21.1437 31 19.0724 31V30.9929ZM15.0155 25.2843C14.6941 25.2843 14.4299 25.5486 14.4299 25.87V25.8743C14.4277 25.9764 14.4099 27.3207 15.3869 28.3314C16.1726 29.1521 17.4154 29.5657 19.0724 29.5657C20.7294 29.5657 21.9651 29.1514 22.7579 28.3314C23.7578 27.2964 23.7221 25.9121 23.7149 25.8979C23.7149 25.5479 23.4507 25.2843 23.1293 25.2843H15.0155Z" fill="#C0AA35"/>
  </g>
  <defs>
    <filter id="filter0_d_685_3293" x="9" y="10" width="28" height="28" filterUnits="userSpaceOnUse" color-interpolation-filters="sRGB">
      <feFlood flood-opacity="0" result="BackgroundImageFix"/>
      <feColorMatrix in="SourceAlpha" type="matrix" values="0 0 0 0 0 0 0 0 0 0 0 0 0 0 0 0 0 0 127 0" result="hardAlpha"/>
      <feOffset dy="3"/>
      <feGaussianBlur stdDeviation="2"/>
      <feComposite in2="hardAlpha" operator="out"/>
      <feColorMatrix type="matrix" values="0 0 0 0 0.843137 0 0 0 0 0.819608 0 0 0 0 0.603922 0 0 0 1 0"/>
      <feBlend mode="normal" in2="BackgroundImageFix" result="effect1_dropShadow_685_3293"/>
      <feBlend mode="normal" in="SourceGraphic" in2="effect1_dropShadow_685_3293" result="shape"/>
    </filter>
  </defs>
</svg>