<svg width="17" height="17" viewBox="0 0 17 17" fill="none" xmlns="http://www.w3.org/2000/svg">
<path id="Vector" d="M8.125 0C6.51803 0 4.94714 0.476523 3.611 1.36931C2.27485 2.2621 1.23344 3.53105 0.618482 5.0157C0.00352044 6.50035 -0.157382 8.13401 0.156123 9.71011C0.469628 11.2862 1.24346 12.7339 2.37976 13.8702C3.51606 15.0065 4.9638 15.7804 6.5399 16.0939C8.11599 16.4074 9.74966 16.2465 11.2343 15.6315C12.719 15.0166 13.9879 13.9752 14.8807 12.639C15.7735 11.3029 16.25 9.73197 16.25 8.125C16.2477 5.97081 15.391 3.90551 13.8677 2.38227C12.3445 0.85903 10.2792 0.00227486 8.125 0ZM5.3125 5.625C5.49792 5.625 5.67918 5.67998 5.83335 5.783C5.98752 5.88601 6.10768 6.03243 6.17864 6.20373C6.2496 6.37504 6.26816 6.56354 6.23199 6.7454C6.19582 6.92725 6.10653 7.0943 5.97542 7.22541C5.8443 7.35652 5.67726 7.44581 5.4954 7.48199C5.31354 7.51816 5.12504 7.49959 4.95374 7.42864C4.78243 7.35768 4.63601 7.23752 4.533 7.08335C4.42999 6.92918 4.375 6.74792 4.375 6.5625C4.375 6.31386 4.47378 6.0754 4.64959 5.89959C4.82541 5.72377 5.06386 5.625 5.3125 5.625ZM11.5625 12.4156C11.4191 12.4984 11.2487 12.5208 11.0888 12.478C10.9288 12.4353 10.7924 12.3308 10.7094 12.1875C10.1258 11.1789 9.2086 10.625 8.125 10.625C7.04141 10.625 6.12422 11.1797 5.54063 12.1875C5.50156 12.2622 5.44778 12.3282 5.38253 12.3816C5.31729 12.4349 5.24192 12.4746 5.16096 12.498C5.08001 12.5215 4.99514 12.5284 4.91146 12.5182C4.82778 12.5081 4.74703 12.4811 4.67405 12.4389C4.60107 12.3967 4.53738 12.3402 4.48681 12.2728C4.43623 12.2053 4.39983 12.1284 4.37977 12.0465C4.35972 11.9646 4.35643 11.8795 4.37011 11.7964C4.38379 11.7132 4.41416 11.6336 4.45938 11.5625C5.26329 10.1727 6.59922 9.375 8.125 9.375C9.65078 9.375 10.9867 10.1719 11.7906 11.5625C11.8734 11.7059 11.8958 11.8763 11.853 12.0362C11.8103 12.1962 11.7058 12.3326 11.5625 12.4156ZM10.9375 7.5C10.7521 7.5 10.5708 7.44502 10.4167 7.342C10.2625 7.23899 10.1423 7.09257 10.0714 6.92127C10.0004 6.74996 9.98184 6.56146 10.018 6.3796C10.0542 6.19775 10.1435 6.0307 10.2746 5.89959C10.4057 5.76848 10.5727 5.67919 10.7546 5.64301C10.9365 5.60684 11.125 5.62541 11.2963 5.69636C11.4676 5.76732 11.614 5.88748 11.717 6.04165C11.82 6.19582 11.875 6.37708 11.875 6.5625C11.875 6.81114 11.7762 7.0496 11.6004 7.22541C11.4246 7.40123 11.1861 7.5 10.9375 7.5Z" fill="#AC0000"/>
</svg>
