<svg width="305" height="230" viewBox="0 0 305 230" fill="none" xmlns="http://www.w3.org/2000/svg">
<path d="M304.185 202.526H6.10352e-05V202.678H304.185V202.526Z" fill="#EBEBEB"/>
<path d="M52.0642 208.317H31.915V208.469H52.0642V208.317Z" fill="#EBEBEB"/>
<path d="M109.403 206.669H88.4143V206.821H109.403V206.669Z" fill="#EBEBEB"/>
<path d="M80.0005 211.256H46.2847V211.408H80.0005V211.256Z" fill="#EBEBEB"/>
<path d="M273.054 211.816H246.779V211.968H273.054V211.816Z" fill="#EBEBEB"/>
<path d="M239.29 208.014H225.358V208.166H239.29V208.014Z" fill="#EBEBEB"/>
<path d="M176.007 210.453H119.015V210.605H176.007V210.453Z" fill="#EBEBEB"/>
<path d="M144.184 175.393H26.7136C25.7933 175.391 24.9113 175.025 24.2611 174.373C23.611 173.722 23.2458 172.839 23.2458 171.919V6.78956C23.2539 5.87459 23.6225 4.99972 24.2718 4.355C24.9211 3.71027 25.7985 3.34776 26.7136 3.34619H144.184C145.105 3.34619 145.988 3.71218 146.64 4.36364C147.291 5.0151 147.657 5.89867 147.657 6.81998V171.919C147.657 172.84 147.291 173.724 146.64 174.375C145.988 175.027 145.105 175.393 144.184 175.393ZM26.7136 3.46787C25.8336 3.46948 24.9903 3.82015 24.3687 4.44291C23.7471 5.06568 23.3979 5.90964 23.3979 6.78956V171.919C23.3979 172.799 23.7471 173.643 24.3687 174.266C24.9903 174.889 25.8336 175.239 26.7136 175.241H144.184C145.064 175.239 145.908 174.889 146.531 174.266C147.153 173.644 147.504 172.8 147.505 171.919V6.78956C147.504 5.90909 147.153 5.06513 146.531 4.44254C145.908 3.81995 145.064 3.46947 144.184 3.46787H26.7136Z" fill="#EBEBEB"/>
<path d="M275.78 175.393H158.304C157.383 175.391 156.5 175.025 155.849 174.374C155.198 173.723 154.832 172.84 154.83 171.919V6.78956C154.84 5.87403 155.21 4.99918 155.86 4.35462C156.51 3.71006 157.388 3.34774 158.304 3.34619H275.78C276.694 3.34936 277.57 3.71258 278.218 4.35713C278.866 5.00169 279.233 5.87564 279.241 6.78956V171.919C279.241 172.838 278.877 173.72 278.228 174.371C277.579 175.022 276.699 175.39 275.78 175.393ZM158.304 3.46787C157.423 3.46947 156.579 3.81995 155.957 4.44254C155.334 5.06513 154.984 5.90909 154.982 6.78956V171.919C154.984 172.8 155.334 173.644 155.957 174.266C156.579 174.889 157.423 175.239 158.304 175.241H275.78C276.66 175.239 277.504 174.889 278.127 174.266C278.749 173.644 279.1 172.8 279.101 171.919V6.78956C279.1 5.90909 278.749 5.06513 278.127 4.44254C277.504 3.81995 276.66 3.46947 275.78 3.46787H158.304Z" fill="#EBEBEB"/>
<path d="M189.665 122.945H172.424V197.714H189.665V122.945Z" fill="#F0F0F0"/>
<path d="M260.753 197.714H175.734V202.453H260.753V197.714Z" fill="#F0F0F0"/>
<path d="M189.665 197.714H264.062V122.946L189.665 122.946V197.714Z" fill="#F5F5F5"/>
<path d="M196.442 156.667H257.285V132.144H196.442V156.667Z" fill="#F0F0F0"/>
<path d="M196.442 188.515H257.285V163.992H196.442V188.515Z" fill="#F0F0F0"/>
<path d="M233.693 134.219H220.035C219.588 134.217 219.161 134.039 218.845 133.723C218.529 133.408 218.351 132.98 218.35 132.533C218.351 132.087 218.53 131.66 218.845 131.346C219.161 131.031 219.589 130.854 220.035 130.854H233.693C234.139 130.854 234.566 131.031 234.882 131.346C235.198 131.66 235.376 132.087 235.378 132.533C235.376 132.98 235.198 133.408 234.883 133.723C234.567 134.039 234.139 134.217 233.693 134.219Z" fill="#F5F5F5"/>
<path d="M233.693 166.054H220.035C219.589 166.054 219.161 165.878 218.845 165.563C218.53 165.248 218.351 164.821 218.35 164.375C218.351 163.929 218.53 163.502 218.845 163.187C219.161 162.873 219.589 162.696 220.035 162.696H233.693C234.139 162.696 234.566 162.873 234.882 163.187C235.198 163.502 235.376 163.929 235.378 164.375C235.376 164.821 235.198 165.248 234.882 165.563C234.566 165.878 234.139 166.054 233.693 166.054Z" fill="#F5F5F5"/>
<path d="M226.496 19.8208H195.493V53.6339H226.496V19.8208Z" fill="#E0E0E0"/>
<path d="M228.351 19.8208H196.54V53.6339H228.351V19.8208Z" fill="#F5F5F5"/>
<path d="M225.681 50.9689V22.4851H199.204V50.9689H225.681Z" fill="white"/>
<path d="M215.685 41.807L218.824 36.3682C219.153 35.7996 219.327 35.1544 219.327 34.4975C219.328 33.8406 219.155 33.1952 218.827 32.626C218.499 32.0569 218.027 31.5842 217.459 31.2554C216.89 30.9265 216.245 30.7533 215.588 30.7529H209.279C208.622 30.754 207.977 30.9277 207.409 31.2565C206.84 31.5853 206.368 32.0577 206.04 32.6264C205.712 33.1951 205.538 33.8401 205.538 34.4968C205.537 35.1535 205.709 35.7988 206.036 36.3682L209.182 41.807C209.508 42.3812 209.981 42.8586 210.553 43.1908C211.124 43.5229 211.773 43.6978 212.433 43.6978C213.094 43.6978 213.743 43.5229 214.314 43.1908C214.885 42.8586 215.358 42.3812 215.685 41.807Z" fill="#F5F5F5"/>
<path d="M76.8249 78.7046H57.6795V202.526H76.8249V78.7046Z" fill="#E0E0E0"/>
<path d="M125.616 202.526H61.5122L54.7776 50.1235H118.881L125.616 202.526Z" fill="#E6E6E6"/>
<path d="M134.967 202.526H64.0613L57.3267 50.1235H128.232L134.967 202.526Z" fill="#F0F0F0"/>
<path d="M71.0028 195.055L65.3267 57.5945H121.291L126.967 195.055H71.0028Z" fill="white"/>
<path d="M95.0455 195.055L76.0219 57.5945H81.99L101.014 195.055H95.0455Z" fill="#FAFAFA"/>
<path d="M103.544 195.055L84.5208 57.5945H94.6988L113.722 195.055H103.544Z" fill="#FAFAFA"/>
<path d="M230.389 119.861H231.789C231.789 116.977 231.789 109.659 231.935 92.8859C232.184 62.4674 232.671 60.6423 232.671 60.6423L229.355 74.6713C227.22 90.2091 229.964 105.826 230.389 119.861Z" fill="#E6E6E6"/>
<path d="M227.621 72.5789C222.821 66.8602 212.564 65.1933 202.07 63.7697C197.951 63.21 212.905 72.6275 220.211 79.3196C225.894 84.5151 229.519 85.9508 231.077 91.128C231.886 84.6732 231.752 77.5067 227.621 72.5789Z" fill="#E6E6E6"/>
<path d="M233.985 82.7993C238.785 77.0807 249.036 75.4137 259.536 73.9901C263.661 73.4365 248.707 82.8541 241.395 89.54C235.719 94.7416 232.087 96.1773 230.529 101.355C229.72 94.8937 229.848 87.7271 233.985 82.7993Z" fill="#E6E6E6"/>
<path d="M231.929 59.3158C235.53 52.4777 244.583 46.0411 254.742 43.6016C258.733 42.6404 245.501 56.2252 240.476 64.9858C236.57 71.763 231.387 79.7569 230.572 85.4756C229.355 74.1234 228.333 66.1295 231.929 59.3158Z" fill="#E6E6E6"/>
<path d="M231.503 123.14C227.244 123.14 223.673 120.992 223.43 118.273L222.718 113.576H240.306L239.594 118.273C239.332 120.992 235.792 123.14 231.503 123.14Z" fill="#F0F0F0"/>
<path d="M241.431 115.353H221.574L221.008 110.121H242.003L241.431 115.353Z" fill="#F0F0F0"/>
<path d="M152.092 230C217.238 230 270.049 226.917 270.049 223.113C270.049 219.31 217.238 216.227 152.092 216.227C86.9466 216.227 34.1356 219.31 34.1356 223.113C34.1356 226.917 86.9466 230 152.092 230Z" fill="#F5F5F5"/>
<path d="M170.903 63.8787C170.903 46.937 164.173 30.6892 152.193 18.7096C140.214 6.73006 123.966 0 107.024 0C90.0826 0 73.8348 6.73006 61.8552 18.7096C49.8756 30.6892 43.1456 46.937 43.1456 63.8787C43.1456 91.5778 60.2529 114.221 85.4211 124.01L129.315 141.044L120.986 126.237C135.152 123.058 147.814 115.151 156.887 103.817C165.959 92.4824 170.903 78.3969 170.903 63.8787Z" fill="#69007B"/>
<path d="M105.595 121.978C93.8223 121.977 82.3148 118.485 72.5271 111.944C62.7395 105.402 55.1112 96.1059 50.607 85.2294C46.1028 74.3529 44.9249 62.3851 47.2223 50.8392C49.5197 39.2933 55.1892 28.6879 63.5138 20.3641C71.8385 12.0403 82.4445 6.37188 93.9906 4.07567C105.537 1.77946 117.504 2.95857 128.38 7.46389C139.256 11.9692 148.552 19.5984 155.092 29.3867C161.633 39.1751 165.123 50.683 165.123 62.4552C165.106 78.2373 158.828 93.3678 147.668 104.527C136.508 115.686 121.377 121.962 105.595 121.978ZM105.595 3.54077C93.9427 3.54197 82.5528 6.99826 72.8651 13.4726C63.1775 19.9469 55.6272 29.1485 51.1691 39.9138C46.7109 50.6792 45.5451 62.5247 47.819 73.9526C50.0929 85.3805 55.7044 95.8774 63.944 104.116C72.1836 112.355 82.6811 117.965 94.1093 120.238C105.537 122.511 117.383 121.344 128.148 116.884C138.912 112.425 148.113 104.874 154.587 95.1857C161.06 85.4974 164.515 74.1071 164.515 62.4552C164.489 46.837 158.273 31.8659 147.229 20.8227C136.185 9.77949 121.213 3.5649 105.595 3.54077Z" fill="white"/>
<path d="M63.8301 66.7807C63.8301 58.5312 65.5072 51.9264 68.8614 46.9662C70.4034 44.5882 72.4685 42.594 74.8988 41.1359C77.3291 39.6777 80.0604 38.794 82.8843 38.5524C89.0207 37.8873 93.7518 39.6333 97.0775 43.7905C100.403 47.9477 102.064 54.0922 102.06 62.224C102.06 68.1333 101.334 73.055 99.8821 76.9892C98.625 80.6389 96.4603 83.909 93.5915 86.4919C90.7033 88.9513 87.1153 90.4409 83.3344 90.7505C79.1732 91.2006 75.7258 90.6653 72.9922 89.1444C70.2586 87.6234 68.0482 84.9872 66.361 81.2356C64.6737 77.5042 63.8301 72.686 63.8301 66.7807ZM75.231 65.6127C75.231 70.7189 75.9225 74.3103 77.3055 76.3869C77.8733 77.3487 78.7127 78.1212 79.7184 78.6072C80.724 79.0933 81.8508 79.2711 82.9573 79.1184C84.1543 78.9934 85.3013 78.5719 86.2945 77.8921C87.2877 77.2123 88.0957 76.2956 88.6455 75.2249C89.9799 72.8928 90.647 68.9019 90.647 63.2522C90.647 58.4947 89.9474 55.096 88.5482 53.0559C87.9616 52.1019 87.1089 51.3403 86.095 50.8647C85.0811 50.3891 83.9502 50.2203 82.8417 50.3791C80.5461 50.6306 78.7007 51.9446 77.3055 54.3213C75.9103 56.698 75.2188 60.4618 75.231 65.6127Z" fill="white"/>
<path d="M108.253 36.6664L119.654 35.4496V54.5464L131.596 34.1599L146.763 32.5112L133.3 53.0437L147.365 82.9815L133.324 84.5024L125.543 64.5662L119.654 73.6552V85.9625L108.253 87.1793V36.6664Z" fill="white"/>
<path d="M52.0886 15.1846C51.1702 15.1858 50.2722 14.9146 49.508 14.4053C48.7439 13.8959 48.148 13.1714 47.7957 12.3233C47.4434 11.4752 47.3506 10.5417 47.5291 9.64089C47.7075 8.74006 48.1491 7.91239 48.798 7.2626C49.447 6.61282 50.2741 6.17012 51.1747 5.99052C52.0752 5.81092 53.0089 5.90249 53.8574 6.25364C54.706 6.60479 55.4313 7.19974 55.9416 7.96322C56.4519 8.72671 56.7243 9.6244 56.7243 10.5427C56.7227 11.7723 56.234 12.9511 55.3651 13.8211C54.4963 14.6911 53.3181 15.1814 52.0886 15.1846ZM52.0886 6.51533C51.2903 6.51413 50.5096 6.74982 49.8454 7.19256C49.1811 7.6353 48.6632 8.26518 48.3572 9.00246C48.0511 9.73973 47.9708 10.5512 48.1262 11.3342C48.2816 12.1172 48.6659 12.8365 49.2304 13.4009C49.7948 13.9654 50.5141 14.3497 51.2971 14.5051C52.0801 14.6605 52.8916 14.5801 53.6288 14.2741C54.3661 13.9681 54.996 13.4501 55.4387 12.7859C55.8815 12.1217 56.1172 11.341 56.116 10.5427C56.1143 9.47509 55.6895 8.45164 54.9346 7.69671C54.1796 6.94177 53.1562 6.51694 52.0886 6.51533Z" fill="#BA68C8"/>
<path d="M97.2113 138.769C96.5973 138.769 95.9972 138.587 95.4869 138.246C94.9765 137.904 94.5788 137.419 94.3442 136.852C94.1095 136.285 94.0484 135.661 94.1686 135.059C94.2889 134.457 94.585 133.904 95.0195 133.47C95.454 133.036 96.0074 132.741 96.6097 132.622C97.2119 132.503 97.836 132.566 98.4028 132.801C98.9697 133.037 99.4538 133.436 99.794 133.947C100.134 134.458 100.315 135.058 100.314 135.672C100.312 136.494 99.9847 137.282 99.403 137.862C98.8213 138.443 98.0331 138.769 97.2113 138.769ZM97.2113 133.178C96.7179 133.178 96.2357 133.324 95.8255 133.598C95.4153 133.872 95.0956 134.262 94.9068 134.718C94.718 135.174 94.6686 135.675 94.7649 136.159C94.8611 136.643 95.0987 137.087 95.4475 137.436C95.7964 137.785 96.2408 138.022 96.7246 138.119C97.2085 138.215 97.71 138.165 98.1658 137.977C98.6216 137.788 99.0111 137.468 99.2852 137.058C99.5593 136.648 99.7056 136.166 99.7056 135.672C99.7056 135.011 99.4428 134.376 98.975 133.909C98.5072 133.441 97.8728 133.178 97.2113 133.178Z" fill="#BA68C8"/>
<path d="M155.025 13.7613C155.025 13.9832 154.959 14.2001 154.835 14.3845C154.711 14.5688 154.536 14.7123 154.331 14.7966C154.125 14.881 153.9 14.9024 153.682 14.8582C153.465 14.814 153.265 14.7062 153.109 14.5484C152.953 14.3907 152.848 14.1901 152.806 13.9721C152.764 13.7542 152.788 13.5288 152.875 13.3244C152.961 13.1201 153.106 12.9461 153.292 12.8246C153.478 12.7031 153.695 12.6395 153.917 12.6419C154.212 12.6451 154.494 12.7645 154.701 12.974C154.908 13.1836 155.025 13.4665 155.025 13.7613Z" fill="#BA68C8"/>
<path d="M85.9137 134.553C85.9137 134.775 85.8479 134.992 85.7246 135.176C85.6014 135.36 85.4262 135.503 85.2213 135.588C85.0164 135.673 84.791 135.694 84.5737 135.651C84.3564 135.607 84.1569 135.5 84.0006 135.343C83.8443 135.185 83.7382 134.985 83.6957 134.768C83.6532 134.55 83.6762 134.325 83.7619 134.121C83.8476 133.916 83.992 133.742 84.1769 133.62C84.3617 133.497 84.5788 133.433 84.8004 133.434C85.0962 133.435 85.3794 133.554 85.588 133.764C85.7966 133.974 85.9137 134.257 85.9137 134.553Z" fill="#BA68C8"/>
<path d="M199.801 204.886L203.463 219.219L210.331 217.534L206.663 203.195L199.801 204.886Z" fill="#FF8B7B"/>
<path d="M210.496 214.608L202.715 216.275C202.594 216.299 202.486 216.367 202.413 216.466C202.34 216.565 202.306 216.688 202.319 216.81L202.855 222.505C202.872 222.648 202.918 222.786 202.992 222.91C203.065 223.034 203.164 223.141 203.281 223.225C203.399 223.308 203.533 223.366 203.674 223.395C203.815 223.424 203.961 223.423 204.102 223.393C206.535 222.784 207.271 222.456 210.35 221.787C213.951 220.996 215.217 221.209 219.475 220.284C222.03 219.724 221.909 217.048 220.771 217.041C217.743 217.046 214.768 216.252 212.144 214.742C211.632 214.487 211.042 214.439 210.496 214.608Z" fill="#263238"/>
<path opacity="0.2" d="M199.794 204.893L201.686 212.278L208.555 210.593L206.663 203.201L199.794 204.893Z" fill="black"/>
<path d="M187.56 149.671C179.384 125.61 172.905 97.2293 172.905 97.2293L196.235 95.7571C196.235 95.7571 199.673 132.6 201.467 149.586C203.329 167.228 209.127 207.107 209.127 207.107L198.602 209.242C198.602 209.242 188.728 171.688 187.56 149.671Z" fill="#BA68C8"/>
<path opacity="0.2" d="M183.667 110.601L178.003 117.604C179.445 123.006 181.136 129.077 182.985 135.289C184.049 127.104 184.277 118.832 183.667 110.601Z" fill="black"/>
<path d="M208.969 208.585L199.32 210.702C199.128 210.743 198.927 210.712 198.756 210.616C198.585 210.52 198.454 210.364 198.389 210.179L197.324 207.064C197.289 206.959 197.276 206.847 197.287 206.737C197.297 206.626 197.33 206.519 197.384 206.422C197.437 206.324 197.511 206.239 197.599 206.172C197.687 206.105 197.788 206.056 197.896 206.03L208.372 203.566C208.485 203.539 208.603 203.537 208.716 203.561C208.83 203.584 208.937 203.632 209.03 203.701C209.124 203.769 209.201 203.858 209.256 203.96C209.312 204.062 209.344 204.174 209.352 204.29L209.595 207.752C209.61 207.943 209.554 208.133 209.439 208.286C209.324 208.44 209.156 208.546 208.969 208.585Z" fill="#263238"/>
<path opacity="0.1" d="M208.969 208.585L199.32 210.702C199.128 210.743 198.927 210.712 198.756 210.616C198.585 210.52 198.454 210.364 198.389 210.179L197.324 207.064C197.289 206.959 197.276 206.847 197.287 206.737C197.297 206.626 197.33 206.519 197.384 206.422C197.437 206.324 197.511 206.239 197.599 206.172C197.687 206.105 197.788 206.056 197.896 206.03L208.372 203.566C208.485 203.539 208.603 203.537 208.716 203.561C208.83 203.584 208.937 203.632 209.03 203.701C209.124 203.769 209.201 203.858 209.256 203.96C209.312 204.062 209.344 204.174 209.352 204.29L209.595 207.752C209.61 207.943 209.554 208.133 209.439 208.286C209.324 208.44 209.156 208.546 208.969 208.585Z" fill="white"/>
<path d="M161.315 204.388L160.883 219.177L167.958 219.08L168.39 204.29L161.315 204.388Z" fill="#FF8B7B"/>
<path d="M168.129 216.044L160.609 216.153C160.487 216.153 160.368 216.198 160.277 216.28C160.186 216.362 160.129 216.475 160.117 216.597L159.508 222.285C159.497 222.429 159.516 222.573 159.564 222.709C159.612 222.845 159.687 222.97 159.786 223.075C159.884 223.18 160.003 223.264 160.135 223.321C160.268 223.377 160.411 223.406 160.555 223.405C163.055 223.326 163.846 223.119 166.997 223.07C170.684 223.009 171.481 223.472 175.8 223.405C178.416 223.362 178.842 220.716 177.717 220.485C174.755 219.883 172.003 218.516 169.735 216.518C169.281 216.159 168.705 215.989 168.129 216.044Z" fill="#263238"/>
<path opacity="0.2" d="M161.315 204.394L161.09 212.017L168.171 211.913L168.39 204.29L161.315 204.394Z" fill="black"/>
<path d="M163.079 149.184C165.075 123.87 163.39 110.218 166.328 97.6432L187.56 96.3291C187.56 96.3291 180.972 133.537 177.327 150.364C173.683 167.192 169.778 208.068 169.778 208.068L159.344 208.196C159.344 208.196 158.066 168.932 163.079 149.184Z" fill="#BA68C8"/>
<path d="M169.735 209.942L159.867 210.094C159.662 210.096 159.463 210.02 159.312 209.881C159.16 209.742 159.067 209.55 159.052 209.345L158.839 206.085C158.832 205.978 158.847 205.87 158.883 205.769C158.918 205.668 158.974 205.575 159.046 205.496C159.118 205.416 159.205 205.352 159.302 205.307C159.399 205.262 159.505 205.237 159.612 205.233L170.362 204.898C170.482 204.895 170.601 204.919 170.71 204.968C170.82 205.017 170.917 205.09 170.995 205.182C171.073 205.274 171.129 205.381 171.159 205.498C171.19 205.614 171.193 205.735 171.171 205.853L170.508 209.291C170.474 209.472 170.378 209.636 170.238 209.754C170.097 209.873 169.919 209.939 169.735 209.942Z" fill="#263238"/>
<path opacity="0.1" d="M169.735 209.942L159.867 210.094C159.662 210.096 159.463 210.02 159.312 209.881C159.16 209.742 159.067 209.55 159.052 209.345L158.839 206.085C158.832 205.978 158.847 205.87 158.883 205.769C158.918 205.668 158.974 205.575 159.046 205.496C159.118 205.416 159.205 205.352 159.302 205.307C159.399 205.262 159.505 205.237 159.612 205.233L170.362 204.898C170.482 204.895 170.601 204.919 170.71 204.968C170.82 205.017 170.917 205.09 170.995 205.182C171.073 205.274 171.129 205.381 171.159 205.498C171.19 205.614 171.193 205.735 171.171 205.853L170.508 209.291C170.474 209.472 170.378 209.636 170.238 209.754C170.097 209.873 169.919 209.939 169.735 209.942Z" fill="white"/>
<path d="M195.767 53.4454L196.984 55.4409L198.328 57.4911C199.198 58.8356 200.105 60.1496 201.011 61.4333C201.918 62.717 202.879 63.9337 203.846 65.0835C204.706 66.1081 205.668 67.0417 206.718 67.8699L203.743 67.4257C204.95 67.1775 206.13 66.8107 207.265 66.3307C208.512 65.7984 209.731 65.2014 210.915 64.5421C212.132 63.879 213.349 63.1428 214.566 62.3763C215.782 61.6097 216.999 60.7763 218.149 59.9976L218.246 59.9367C218.663 59.6442 219.17 59.5109 219.676 59.561C220.183 59.6111 220.654 59.8414 221.005 60.2099C221.356 60.5784 221.562 61.0606 221.588 61.5687C221.613 62.0769 221.455 62.5772 221.142 62.9786C220.187 64.2619 219.148 65.4812 218.033 66.6288C216.927 67.7762 215.754 68.8589 214.523 69.8714C213.25 70.9166 211.902 71.8663 210.49 72.7125C208.973 73.6303 207.354 74.3654 205.665 74.9026C205.211 75.0423 204.733 75.0868 204.261 75.0334C203.789 74.98 203.333 74.8299 202.921 74.5923L202.69 74.4585C200.946 73.4181 199.346 72.1519 197.933 70.6927C197.272 70.0275 196.637 69.3543 196.029 68.6729C195.42 67.9915 194.842 67.296 194.295 66.5862C193.175 65.1869 192.147 63.7512 191.168 62.285C190.681 61.555 190.2 60.8189 189.744 60.0645C189.288 59.3101 188.85 58.5801 188.388 57.7405C187.947 56.7822 187.878 55.6945 188.193 54.6881C188.509 53.6817 189.187 52.8282 190.095 52.2928C191.004 51.7575 192.079 51.5783 193.112 51.7901C194.145 52.0019 195.063 52.5896 195.688 53.4393L195.767 53.4454Z" fill="#FF8B7B"/>
<path d="M186.544 45.3234C194.788 46.2603 201.023 59.0239 201.023 59.0239L192.506 68.0703C192.506 68.0703 188.722 63.5562 184.652 57.8436C180.229 51.6383 180.022 44.5873 186.544 45.3234Z" fill="#263238"/>
<path d="M185.893 47.2524C182.724 46.1269 172.795 47.812 172.795 47.812C175.575 51.371 177.425 80.8526 177.662 97.8078C180.673 98.2215 187.828 98.1667 190.511 97.5462C190.176 90.8907 187.986 59.0851 185.893 47.2524Z" fill="white"/>
<path d="M196.722 56.183C196.348 53.1167 194.862 50.2943 192.545 48.2512C190.228 46.208 187.242 45.0862 184.153 45.0985C178.222 45.148 172.31 45.8003 166.511 47.0453C165.61 47.2403 164.758 47.6131 164.004 48.1418C163.25 48.6705 162.609 49.3445 162.119 50.1242C161.629 50.9039 161.299 51.7737 161.15 52.6825C161 53.5913 161.034 54.5208 161.248 55.4164C165.616 73.7466 164.466 91.1338 165.635 99.219C170.394 100.405 175.288 100.967 180.193 100.892C180.193 100.892 180.016 98.641 179.797 94.9969C179.718 93.5733 177.887 50.9023 175.034 47.2339C175.034 47.2339 181.154 46.6255 184.324 47.7327C186.678 61.0195 188.88 100.91 188.88 100.916C193.887 100.557 197.397 97.6372 197.331 96.8038C198.328 80.4934 197.842 65.7283 196.722 56.183Z" fill="#263238"/>
<path d="M171.773 32.2314C172.704 35.8147 173.793 42.1174 172.083 45.5608C171.908 45.8965 171.855 46.2825 171.933 46.653C172.01 47.0235 172.214 47.3556 172.509 47.5928C174.705 49.2901 177.528 50.8658 181.635 50.6346C185.948 50.373 185.626 47.7935 184.53 46.0718C184.419 45.8895 184.271 45.7318 184.096 45.6084C183.922 45.485 183.724 45.3984 183.514 45.354C179.438 44.5144 179.39 41.2718 179.974 38.157L171.773 32.2314Z" fill="#FF8B7B"/>
<path opacity="0.2" d="M175.113 34.6404L179.98 38.1324C179.827 38.8858 179.742 39.6513 179.724 40.4199C177.966 40.3408 175.466 38.6617 175.162 36.8548C175.012 36.1256 174.996 35.3754 175.113 34.6404Z" fill="black"/>
<path d="M185.23 27.6808C186.331 26.9507 186.915 21.9195 185.23 20.2891C186.97 18.756 185.966 15.3431 183.581 14.7651C181.197 14.1872 179.445 15.7568 176.372 13.7856C175.843 14.5035 176.147 15.4222 177.066 15.9575C178.392 16.7301 185.23 27.6808 185.23 27.6808Z" fill="#263238"/>
<path d="M170.276 26.1476C171.104 31.623 171.305 34.9021 174.346 37.4694C178.927 41.3325 185.528 38.1386 186.362 32.4929C187.116 27.413 185.638 19.2792 180.035 17.6001C178.793 17.2286 177.477 17.1784 176.21 17.4541C174.944 17.7298 173.768 18.3225 172.793 19.1766C171.818 20.0307 171.075 21.1183 170.635 22.3375C170.195 23.5567 170.072 24.8677 170.276 26.1476Z" fill="#FF8B7B"/>
<path d="M171.955 30.7952C173.422 30.1077 172.619 24.2309 172.26 23.075C176.111 23.6104 186.94 20.7206 183.375 16.5107C180.771 13.4689 173.172 16.9487 169.936 14.3267C168.974 15.3548 170.313 16.5715 170.313 16.5715C170.313 16.5715 165.172 17.7883 167.271 21.4385C163.098 21.2499 165.957 31.4036 171.955 30.7952Z" fill="#263238"/>
<path d="M168.238 19.1151C166.212 20.7029 165.416 19.9911 164.241 18.9204C163.962 22.0413 166.444 22.4429 167.593 22.1204C168.348 21.147 168.238 19.1151 168.238 19.1151Z" fill="#263238"/>
<path d="M168.476 31.1971C169.153 32.3405 170.241 33.1826 171.517 33.5515C173.13 33.9713 173.738 32.3348 173.124 30.7226C172.57 29.2443 171.061 27.2488 169.522 27.5591C167.983 27.8694 167.6 29.7492 168.476 31.1971Z" fill="#FF8B7B"/>
<path d="M177.832 26.6343C177.875 27.0845 178.143 27.4252 178.441 27.3948C178.739 27.3644 178.94 26.9811 178.897 26.5309C178.854 26.0807 178.587 25.74 178.289 25.7704C177.991 25.8009 177.796 26.1841 177.832 26.6343Z" fill="#263238"/>
<path d="M182.9 25.7647C182.943 26.2149 183.21 26.5556 183.508 26.5312C183.806 26.5069 184.007 26.1115 183.965 25.6613C183.922 25.2111 183.654 24.8704 183.356 24.9008C183.058 24.9312 182.864 25.3145 182.9 25.7647Z" fill="#263238"/>
<path d="M181.093 26.2937C181.093 26.2937 182.346 28.7941 183.581 29.9439C182.851 30.7652 181.464 30.5523 181.464 30.5523L181.093 26.2937Z" fill="#FF5652"/>
<path d="M180.077 32.7426C179.573 32.7848 179.065 32.7217 178.587 32.5573C178.108 32.3929 177.669 32.1307 177.297 31.7875C177.281 31.7762 177.267 31.7615 177.257 31.7444C177.247 31.7272 177.241 31.7081 177.24 31.6884C177.238 31.6686 177.241 31.6487 177.248 31.6302C177.255 31.6117 177.266 31.5949 177.28 31.5811C177.294 31.5673 177.311 31.5569 177.33 31.5505C177.349 31.5442 177.369 31.5421 177.388 31.5443C177.408 31.5466 177.427 31.5533 177.444 31.5637C177.461 31.5742 177.475 31.5883 177.486 31.605C177.907 31.975 178.41 32.2405 178.953 32.38C179.496 32.5196 180.065 32.5291 180.613 32.408C180.647 32.4008 180.683 32.4077 180.713 32.427C180.743 32.4464 180.763 32.4768 180.771 32.5114C180.776 32.5468 180.768 32.5829 180.747 32.6123C180.727 32.6418 180.696 32.6623 180.661 32.6696C180.468 32.7052 180.273 32.7295 180.077 32.7426Z" fill="#263238"/>
<path d="M175.934 25.8922C175.89 25.9044 175.844 25.9044 175.8 25.8922C175.736 25.8629 175.685 25.8098 175.659 25.744C175.633 25.6782 175.634 25.6049 175.66 25.5394C175.822 25.1476 176.075 24.7999 176.398 24.5249C176.72 24.2499 177.104 24.0555 177.516 23.9576C177.55 23.9515 177.586 23.9524 177.62 23.9602C177.654 23.968 177.686 23.9825 177.714 24.0029C177.743 24.0233 177.767 24.0492 177.785 24.079C177.803 24.1089 177.815 24.142 177.82 24.1766C177.831 24.2466 177.814 24.318 177.773 24.3759C177.732 24.4337 177.671 24.4735 177.601 24.4869C177.276 24.5677 176.975 24.7245 176.722 24.9445C176.469 25.1645 176.272 25.4413 176.147 25.7523C176.127 25.7918 176.096 25.8254 176.059 25.8499C176.022 25.8744 175.979 25.889 175.934 25.8922Z" fill="#263238"/>
<path d="M184.829 23.3491C184.787 23.3595 184.743 23.3599 184.7 23.3504C184.658 23.3409 184.619 23.3217 184.585 23.2944C184.343 23.0714 184.051 22.9093 183.734 22.8215C183.416 22.7337 183.083 22.7227 182.76 22.7894C182.692 22.8083 182.62 22.7997 182.558 22.7655C182.497 22.7314 182.451 22.6744 182.432 22.6069C182.414 22.5392 182.424 22.4675 182.458 22.4064C182.492 22.3453 182.548 22.2995 182.614 22.2784C183.024 22.1853 183.45 22.1919 183.856 22.2978C184.263 22.4036 184.638 22.6056 184.95 22.8868C184.999 22.9377 185.026 23.0052 185.026 23.0754C185.026 23.1456 184.999 23.2131 184.95 23.264C184.917 23.3016 184.875 23.3308 184.829 23.3491Z" fill="#263238"/>
<path d="M167.198 58.8294L166.237 60.983L165.282 63.2157C164.673 64.7123 164.065 66.215 163.487 67.7298C162.341 70.7132 161.368 73.7601 160.573 76.8553L160.311 77.993L160.184 78.5648L160.153 78.7048C160.116 79.1445 160.158 79.5874 160.275 80.0128C160.435 80.7022 160.638 81.3808 160.883 82.0447C161.127 82.7565 161.406 83.4865 161.711 84.2166C162.927 87.1489 164.436 90.1604 165.86 93.1353L165.89 93.19C166.125 93.6463 166.186 94.1719 166.064 94.6701C165.942 95.1683 165.644 95.6057 165.225 95.9017C164.806 96.1978 164.294 96.3326 163.784 96.2815C163.273 96.2304 162.799 95.9967 162.447 95.6235C159.991 93.0711 157.794 90.2813 155.889 87.2949C154.845 85.6912 153.972 83.9825 153.285 82.1968C152.828 81.0321 152.577 79.7971 152.543 78.5466C152.543 78.3337 152.543 78.1086 152.579 77.8896V77.5854V77.415L152.676 76.7337L152.865 75.377C153.468 71.8455 154.349 68.367 155.499 64.9739C156.063 63.2948 156.671 61.64 157.324 60.0096C157.659 59.1944 158.006 58.3853 158.377 57.5761C158.748 56.767 159.107 56.0004 159.551 55.1426C160.082 54.2053 160.948 53.5039 161.975 53.1797C163.002 52.8555 164.114 52.9325 165.087 53.3953C166.059 53.8581 166.82 54.6722 167.217 55.6738C167.613 56.6753 167.615 57.7898 167.222 58.7929L167.198 58.8294Z" fill="#FF8B7B"/>
<path d="M165.805 47.2399C156.612 49.5578 154.057 61.3115 154.057 61.3115L165.476 69.5002C165.476 69.5002 168.305 66.5374 169.157 59.5837C169.565 56.2742 167.666 47.1487 165.805 47.2399Z" fill="#263238"/>
<path d="M164.387 91.7844L169.699 93.7677L165.635 99.243C165.635 99.243 161.041 96.8643 161.905 94.2179L164.387 91.7844Z" fill="#FF8B7B"/>
<path d="M172.168 99.1034L170.422 100.776C170.086 101.098 169.646 101.29 169.182 101.318C168.717 101.346 168.258 101.208 167.886 100.928L165.616 99.219L169.68 93.7437L172.205 96.2745C172.393 96.4598 172.542 96.6813 172.643 96.9257C172.744 97.1702 172.794 97.4324 172.79 97.6967C172.787 97.961 172.73 98.2219 172.623 98.4636C172.516 98.7054 172.362 98.923 172.168 99.1034Z" fill="#FF8B7B"/>
<path d="M224.75 61.9439L224.099 58.975C224.031 58.6688 223.854 58.3976 223.601 58.2119C223.348 58.0262 223.037 57.9385 222.724 57.9651C221.781 58.0447 220.868 58.3359 220.053 58.8168L216.403 60.9826L216.725 64.426C218.24 66.7621 222.973 64.6694 222.973 64.6694L223.363 64.5173C223.863 64.3247 224.278 63.9593 224.533 63.4873C224.787 63.0153 224.864 62.4678 224.75 61.9439Z" fill="#FF8B7B"/>
<path d="M215.935 62.3092C215.709 61.1472 216.214 60.2103 216.099 59.1152C216.001 58.1601 216.257 57.0894 215.953 55.7874C216.318 55.1791 217.638 55.6779 217.656 57.2901C218.064 58.9449 219.883 58.7076 220.607 58.5069C220.607 58.5251 218.149 62.8019 215.935 62.3092Z" fill="#FF8B7B"/>
</svg>
