<svg width="17" height="17" viewBox="0 0 17 17" fill="none" xmlns="http://www.w3.org/2000/svg">
<g id="solar:restart-bold">
<path id="Vector" d="M12.9328 2.48482C13.0299 2.52504 13.1128 2.59314 13.1712 2.68051C13.2296 2.76789 13.2607 2.87062 13.2607 2.9757V5.98116C13.2607 6.12205 13.2048 6.25718 13.1051 6.35681C13.0055 6.45644 12.8704 6.51241 12.7295 6.51241H9.72402C9.61902 6.51232 9.5164 6.48111 9.42912 6.42273C9.34184 6.36435 9.27383 6.28141 9.23365 6.1844C9.19348 6.08738 9.18296 5.98064 9.20342 5.87764C9.22388 5.77465 9.27441 5.68004 9.34861 5.60574L10.4834 4.46957C9.44101 4.03308 8.2838 3.95259 7.19106 4.24057C6.09832 4.52855 5.13108 5.16892 4.43924 6.06244C3.7474 6.95595 3.3696 8.05272 3.36439 9.18276C3.35918 10.3128 3.72686 11.413 4.41042 12.3129C5.09399 13.2127 6.05529 13.862 7.14532 14.16C8.23536 14.4581 9.39327 14.3882 10.4396 13.9614C11.4859 13.5345 12.3622 12.7745 12.9327 11.799C13.5032 10.8235 13.736 9.68709 13.5951 8.56587C13.5805 8.42757 13.6207 8.28905 13.7071 8.18007C13.7935 8.0711 13.9192 8.00034 14.0571 7.983C14.1951 7.96566 14.3344 8.00312 14.4451 8.08733C14.5558 8.17154 14.629 8.2958 14.6491 8.43341C14.8215 9.80486 14.5305 11.1946 13.8224 12.3817C13.1143 13.5688 12.0296 14.4851 10.741 14.9849C9.45225 15.4848 8.03344 15.5396 6.71006 15.1405C5.38668 14.7414 4.23469 13.9114 3.4372 12.7824C2.63972 11.6534 2.24253 10.2902 2.30876 8.90954C2.37499 7.52888 2.90085 6.20998 3.80273 5.1625C4.70462 4.11502 5.93078 3.39909 7.28628 3.12851C8.64179 2.85793 10.0488 3.04823 11.2838 3.66916L12.3534 2.59957C12.4277 2.5254 12.5223 2.47491 12.6253 2.45448C12.7283 2.43406 12.8358 2.44462 12.9328 2.48482Z" fill="#676767"/>
</g>
</svg>
