<svg width="175" height="19" viewBox="0 0 175 19" fill="none" xmlns="http://www.w3.org/2000/svg">
<g id="Group 268">
<g id="Group 267">
<path id="Vector" d="M10.0755 15.2862L9.81724 15.13L9.55871 15.2858L4.79775 18.1538L4.79685 18.1544C4.30534 18.4519 3.70367 18.0142 3.8334 17.4564L5.09529 12.0417L5.16376 11.7479L4.93576 11.5504L0.725463 7.90219L0.725287 7.90204C0.289918 7.52515 0.527134 6.81576 1.0916 6.77086L1.0916 6.77086L1.09424 6.77064L6.63532 6.30028L6.93548 6.2748L7.05324 5.99753L9.22149 0.892399L9.22231 0.890456C9.44084 0.369847 10.1926 0.369849 10.4111 0.890457L10.4118 0.892026L12.58 6.00863L12.6977 6.28625L12.9981 6.31175L18.5392 6.78212L18.5418 6.78233C19.1063 6.82723 19.3435 7.53662 18.9082 7.91351L18.908 7.91366L14.6977 11.5618L14.4697 11.7594L14.5382 12.0532L15.8 17.4678C15.9298 18.0257 15.3281 18.4633 14.8366 18.1658L14.8364 18.1657L10.0755 15.2862Z" stroke="#CACACA"/>
<path id="Vector_2" d="M48.7093 15.2862L48.451 15.13L48.1925 15.2858L43.4315 18.1538L43.4306 18.1544C42.9391 18.4519 42.3375 18.0142 42.4672 17.4564L43.7291 12.0417L43.7975 11.7479L43.5696 11.5504L39.3593 7.90219L39.3591 7.90204C38.9237 7.52515 39.1609 6.81576 39.7254 6.77086L39.7254 6.77086L39.728 6.77064L45.2691 6.30028L45.5693 6.2748L45.687 5.99753L47.8553 0.892399L47.8561 0.890456C48.0746 0.369847 48.8264 0.369849 49.0449 0.890457L49.0456 0.892026L51.2138 6.00863L51.3315 6.28625L51.6319 6.31175L57.173 6.78212L57.1756 6.78233C57.7401 6.82723 57.9773 7.53662 57.5419 7.91351L57.5418 7.91366L53.3315 11.5618L53.1035 11.7594L53.1719 12.0532L54.4338 17.4678C54.5636 18.0257 53.9619 18.4633 53.4704 18.1658L53.4702 18.1657L48.7093 15.2862Z" stroke="#CACACA"/>
<path id="Vector_3" d="M87.3431 15.2862L87.0848 15.13L86.8263 15.2858L82.0653 18.1538L82.0644 18.1544C81.5729 18.4519 80.9712 18.0142 81.101 17.4564L82.3629 12.0417L82.4313 11.7479L82.2033 11.5504L77.993 7.90219L77.9929 7.90204C77.5575 7.52515 77.7947 6.81576 78.3592 6.77086L78.3592 6.77086L78.3618 6.77064L83.9029 6.30028L84.2031 6.2748L84.3208 5.99753L86.4891 0.892399L86.4899 0.890456C86.7084 0.369847 87.4602 0.369849 87.6787 0.890457L87.6794 0.892026L89.8476 6.00863L89.9653 6.28625L90.2657 6.31175L95.8068 6.78212L95.8094 6.78233C96.3739 6.82723 96.6111 7.53662 96.1757 7.91351L96.1756 7.91366L91.9653 11.5618L91.7373 11.7594L91.8057 12.0532L93.0676 17.4678C93.1974 18.0257 92.5957 18.4633 92.1042 18.1658L92.104 18.1657L87.3431 15.2862Z" stroke="#CACACA"/>
<path id="Vector_4" d="M125.976 15.2862L125.718 15.13L125.459 15.2858L120.698 18.1538L120.697 18.1544C120.206 18.4519 119.604 18.0142 119.734 17.4564L120.996 12.0417L121.064 11.7479L120.836 11.5504L116.626 7.90219L116.626 7.90204C116.19 7.52515 116.428 6.81576 116.992 6.77086L116.992 6.77086L116.995 6.77064L122.536 6.30028L122.836 6.2748L122.954 5.99753L125.122 0.892399L125.123 0.890456C125.341 0.369847 126.093 0.369849 126.312 0.890457L126.312 0.892026L128.48 6.00863L128.598 6.28625L128.899 6.31175L134.44 6.78212L134.442 6.78233C135.007 6.82723 135.244 7.53662 134.809 7.91351L134.808 7.91366L130.598 11.5618L130.37 11.7594L130.439 12.0532L131.7 17.4678C131.83 18.0257 131.228 18.4633 130.737 18.1658L130.737 18.1657L125.976 15.2862Z" stroke="#CACACA"/>
<path id="Vector_5" d="M164.61 15.2862L164.351 15.13L164.093 15.2858L159.332 18.1538L159.331 18.1544C158.84 18.4519 158.238 18.0142 158.368 17.4564L159.629 12.0417L159.698 11.7479L159.47 11.5504L155.26 7.90219L155.259 7.90204C154.824 7.52515 155.061 6.81576 155.626 6.77086L155.626 6.77086L155.628 6.77064L161.17 6.30028L161.47 6.2748L161.587 5.99753L163.756 0.892399L163.756 0.890456C163.975 0.369847 164.727 0.369849 164.945 0.890457L164.946 0.892026L167.114 6.00863L167.232 6.28625L167.532 6.31175L173.073 6.78212L173.076 6.78233C173.64 6.82723 173.878 7.53662 173.442 7.91351L173.442 7.91366L169.232 11.5618L169.004 11.7594L169.072 12.0532L170.334 17.4678C170.464 18.0257 169.862 18.4633 169.371 18.1658L169.371 18.1657L164.61 15.2862Z" stroke="#CACACA"/>
</g>
</g>
</svg>
