<svg width="23" height="23" viewBox="0 0 23 23" fill="none" xmlns="http://www.w3.org/2000/svg">
<path id="Vector" d="M14.7452 11.4096C14.8931 11.4754 15.0491 11.5 15.197 11.5C15.5337 11.5 15.8623 11.3604 16.1005 11.1057L18.0225 9.03571H20.5359C21.8911 9.03571 23 7.92679 23 6.57143V2.46429C23 1.10893 21.8911 0 20.5359 0H13.9649C12.6097 0 11.5008 1.10893 11.5008 2.46429V6.56321C11.5008 7.91857 12.6097 9.0275 13.9649 9.0275V10.2596C13.9649 10.7771 14.2688 11.2207 14.7452 11.4096ZM13.1435 2.46429C13.1435 2.0125 13.5132 1.64286 13.9649 1.64286H20.5359C20.9876 1.64286 21.3573 2.0125 21.3573 2.46429V6.57143C21.3573 7.02321 20.9876 7.39286 20.5359 7.39286H17.2997L15.6077 9.21643V7.39286H13.9649C13.5132 7.39286 13.1435 7.02321 13.1435 6.57143V2.46429ZM6.98326 13.1429C4.71627 13.1429 2.8764 11.3029 2.8764 9.03571C2.8764 6.76857 4.71627 4.92857 6.98326 4.92857C9.25024 4.92857 11.0901 6.76857 11.0901 9.03571C11.0901 11.3029 9.25024 13.1429 6.98326 13.1429ZM6.98326 6.57143C5.628 6.57143 4.51914 7.68036 4.51914 9.03571C4.51914 10.3911 5.628 11.5 6.98326 11.5C8.33852 11.5 9.44737 10.3911 9.44737 9.03571C9.44737 7.68036 8.33852 6.57143 6.98326 6.57143ZM6.98326 22.9918C4.60128 22.9918 2.77784 22.3346 1.54578 21.0466C-0.0402878 19.3915 -0.00332632 17.2804 0.000780536 17.0726V17.0586C0.00160191 15.8207 1.03653 14.7857 2.31787 14.7857H11.6486C12.9218 14.7857 13.9649 15.8199 13.9649 17.0997V17.1079C13.9682 17.2574 14.0142 19.3833 12.4207 21.0549C11.1887 22.3437 9.36524 23 6.98326 23V22.9918ZM2.31787 16.4269C1.94825 16.4269 1.64434 16.7309 1.64434 17.1005V17.1054C1.64188 17.2229 1.62135 18.7688 2.74498 19.9311C3.64849 20.875 5.07768 21.3506 6.98326 21.3506C8.88884 21.3506 10.3098 20.8741 11.2215 19.9311C12.3715 18.7409 12.3304 17.149 12.3222 17.1325C12.3222 16.73 12.0183 16.4269 11.6486 16.4269H2.31787Z" fill="white"/>
</svg>
