<svg width="40" height="40" viewBox="0 0 40 40" fill="none" xmlns="http://www.w3.org/2000/svg">
<path id="Vector" d="M24.5307 38.8486C23.763 39.6162 22.8119 40 21.6771 40C20.5423 40 19.5912 39.6162 18.8235 38.8486L1.20151 21.2265C0.834388 20.8594 0.542023 20.4255 0.324417 19.9249C0.106812 19.4243 -0.00132279 18.8903 1.22104e-05 18.3229V4.00501C1.22104e-05 2.90363 0.392503 1.96045 1.17748 1.17547C1.96246 0.390491 2.90498 -0.0013316 4.00502 3.39984e-06H18.3229C18.8903 3.39984e-06 19.4243 0.108806 19.9249 0.326412C20.4255 0.544017 20.8594 0.835714 21.2265 1.2015L38.8486 18.8736C39.6162 19.6412 40 20.5844 40 21.7031C40 22.8219 39.6162 23.7644 38.8486 24.5307L24.5307 38.8486ZM21.6771 36.0451L35.995 21.7272L18.3229 4.00501H4.00502V18.3229L21.6771 36.0451ZM9.01127 12.015C9.84565 12.015 10.5552 11.7227 11.1399 11.1379C11.7247 10.5532 12.0164 9.84431 12.015 9.01127C12.015 8.17689 11.7227 7.46734 11.1379 6.88261C10.5532 6.29787 9.84431 6.00618 9.01127 6.00751C8.1769 6.00751 7.46734 6.29988 6.88261 6.88461C6.29788 7.46934 6.00618 8.17823 6.00752 9.01127C6.00752 9.84564 6.29989 10.5552 6.88462 11.1399C7.46935 11.7247 8.17823 12.0164 9.01127 12.015Z" fill="#BA68C8"/>
</svg>
