<svg xmlns="http://www.w3.org/2000/svg" width="42" height="42" viewBox="0 0 42 42" fill="none">
  <circle cx="21" cy="21" r="21" fill="#550088" fill-opacity="0.21"/>
  <g filter="url(#filter0_d_313_1478)">
    <path d="M13.85 20.5714C14.898 20.5714 15.75 19.7386 15.75 18.7143C15.75 17.69 14.898 16.8571 13.85 16.8571C12.802 16.8571 11.95 17.69 11.95 18.7143C11.95 19.7386 12.802 20.5714 13.85 20.5714ZM27.15 20.5714C28.198 20.5714 29.05 19.7386 29.05 18.7143C29.05 17.69 28.198 16.8571 27.15 16.8571C26.102 16.8571 25.25 17.69 25.25 18.7143C25.25 19.7386 26.102 20.5714 27.15 20.5714ZM28.1 21.5H26.2C25.6775 21.5 25.2055 21.706 24.8611 22.0397C26.0575 22.681 26.9066 23.8388 27.0906 25.2143H29.05C29.5755 25.2143 30 24.7993 30 24.2857V23.3571C30 22.3328 29.148 21.5 28.1 21.5ZM20.5 21.5C22.3377 21.5 23.825 20.0462 23.825 18.25C23.825 16.4538 22.3377 15 20.5 15C18.6623 15 17.175 16.4538 17.175 18.25C17.175 20.0462 18.6623 21.5 20.5 21.5ZM22.78 22.4286H22.5336C21.9161 22.7188 21.2303 22.8929 20.5 22.8929C19.7697 22.8929 19.0869 22.7188 18.4664 22.4286H18.22C16.3319 22.4286 14.8 23.9259 14.8 25.7714V26.6071C14.8 27.3761 15.4383 28 16.225 28H24.775C25.5617 28 26.2 27.3761 26.2 26.6071V25.7714C26.2 23.9259 24.6681 22.4286 22.78 22.4286ZM16.1389 22.0397C15.7945 21.706 15.3225 21.5 14.8 21.5H12.9C11.852 21.5 11 22.3328 11 23.3571V24.2857C11 24.7993 11.4245 25.2143 11.95 25.2143H13.9064C14.0934 23.8388 14.9425 22.681 16.1389 22.0397Z" fill="#6500A3"/>
  </g>
  <defs>
    <filter id="filter0_d_313_1478" x="8" y="14" width="25" height="19" filterUnits="userSpaceOnUse" color-interpolation-filters="sRGB">
      <feFlood flood-opacity="0" result="BackgroundImageFix"/>
      <feColorMatrix in="SourceAlpha" type="matrix" values="0 0 0 0 0 0 0 0 0 0 0 0 0 0 0 0 0 0 127 0" result="hardAlpha"/>
      <feOffset dy="2"/>
      <feGaussianBlur stdDeviation="1.5"/>
      <feComposite in2="hardAlpha" operator="out"/>
      <feColorMatrix type="matrix" values="0 0 0 0 0.247059 0 0 0 0 0 0 0 0 0 0.396078 0 0 0 0.35 0"/>
      <feBlend mode="normal" in2="BackgroundImageFix" result="effect1_dropShadow_313_1478"/>
      <feBlend mode="normal" in="SourceGraphic" in2="effect1_dropShadow_313_1478" result="shape"/>
    </filter>
  </defs>
</svg>