<svg xmlns="http://www.w3.org/2000/svg" width="17" height="13" viewBox="0 0 17 13" fill="none">
  <path d="M16.4688 10.8333H2.125V0.541667C2.125 0.242396 1.88727 0 1.59375 0H0.53125C0.237734 0 0 0.242396 0 0.541667V11.9167C0 12.5149 0.475801 13 1.0625 13H16.4688C16.7623 13 17 12.7576 17 12.4583V11.375C17 11.0757 16.7623 10.8333 16.4688 10.8333ZM15.4062 1.08333H11.4863C10.7764 1.08333 10.4208 1.95846 10.9228 2.47034L11.9986 3.56721L9.5625 6.05143L7.12639 3.56755C6.71135 3.14438 6.03865 3.14438 5.62395 3.56755L3.34322 5.893C3.1357 6.10458 3.1357 6.44753 3.34322 6.65912L4.09428 7.4249C4.3018 7.63649 4.63814 7.63649 4.84566 7.4249L6.375 5.86523L8.81111 8.34911C9.22615 8.77229 9.89885 8.77229 10.3136 8.34911L13.5011 5.09911L14.5768 6.19599C15.0789 6.70786 15.9372 6.34529 15.9372 5.62148V1.625C15.9375 1.32573 15.6998 1.08333 15.4062 1.08333Z" fill="#D203D3"/>
</svg>