<svg width="49" height="39" viewBox="0 0 49 39" fill="none" xmlns="http://www.w3.org/2000/svg">
<path id="Vector" d="M1.9798 8.22341e-05C1.45472 8.22341e-05 0.951153 0.205528 0.579869 0.571223C0.208585 0.936918 0 1.43291 0 1.95008C0 2.46725 0.208585 2.96324 0.579869 3.32893C0.951153 3.69463 1.45472 3.90007 1.9798 3.90007H6.37495L11.5699 24.375C12.0114 26.1105 13.5893 27.3 15.4048 27.3H40.0929C41.8806 27.3 43.3992 26.13 43.8684 24.4335L49 5.85007H44.8543L40.0909 23.4H15.4028L10.2098 2.92508C9.9953 2.08507 9.5008 1.34027 8.8055 0.809942C8.11021 0.279613 7.25433 -0.00556321 6.37495 8.22341e-05H1.9798ZM37.6162 27.3C34.3594 27.3 31.6768 29.9423 31.6768 33.15C31.6768 36.3578 34.3594 39 37.6162 39C40.8729 39 43.5556 36.3578 43.5556 33.15C43.5556 29.9423 40.8729 27.3 37.6162 27.3ZM19.798 27.3C16.5412 27.3 13.8586 29.9423 13.8586 33.15C13.8586 36.3578 16.5412 39 19.798 39C23.0547 39 25.7374 36.3578 25.7374 33.15C25.7374 29.9423 23.0547 27.3 19.798 27.3ZM25.7374 8.22341e-05V9.75006H19.798L27.7172 17.55L35.6364 9.75006H29.697V8.22341e-05H25.7374ZM19.798 31.2C20.9146 31.2 21.7778 32.0502 21.7778 33.15C21.7778 34.2498 20.9146 35.1 19.798 35.1C18.6814 35.1 17.8182 34.2498 17.8182 33.15C17.8182 32.0502 18.6814 31.2 19.798 31.2ZM37.6162 31.2C38.7328 31.2 39.596 32.0502 39.596 33.15C39.596 34.2498 38.7328 35.1 37.6162 35.1C36.4996 35.1 35.6364 34.2498 35.6364 33.15C35.6364 32.0502 36.4996 31.2 37.6162 31.2Z" fill="#9600AF"/>
</svg>
