<svg xmlns="http://www.w3.org/2000/svg" width="30" height="30" viewBox="0 0 30 30" fill="none">
    <path d="M19.2329 14.8821C19.4257 14.9679 19.6293 15 19.8221 15C20.2614 15 20.6899 14.8179 21.0006 14.4857L23.5076 11.7857H26.7859C28.5537 11.7857 30 10.3393 30 8.57143V3.21429C30 1.44643 28.5537 0 26.7859 0H18.2151C16.4474 0 15.001 1.44643 15.001 3.21429V8.56071C15.001 10.3286 16.4474 11.775 18.2151 11.775V13.3821C18.2151 14.0571 18.6115 14.6357 19.2329 14.8821ZM17.1438 3.21429C17.1438 2.625 17.6259 2.14286 18.2151 2.14286H26.7859C27.3752 2.14286 27.8573 2.625 27.8573 3.21429V8.57143C27.8573 9.16071 27.3752 9.64286 26.7859 9.64286H22.5648L20.3578 12.0214V9.64286H18.2151C17.6259 9.64286 17.1438 9.16071 17.1438 8.57143V3.21429ZM9.1086 17.1429C6.15166 17.1429 3.75183 14.7429 3.75183 11.7857C3.75183 8.82857 6.15166 6.42857 9.1086 6.42857C12.0655 6.42857 14.4654 8.82857 14.4654 11.7857C14.4654 14.7429 12.0655 17.1429 9.1086 17.1429ZM9.1086 8.57143C7.34086 8.57143 5.89454 10.0179 5.89454 11.7857C5.89454 13.5536 7.34086 15 9.1086 15C10.8763 15 12.3227 13.5536 12.3227 11.7857C12.3227 10.0179 10.8763 8.57143 9.1086 8.57143ZM9.1086 29.9893C6.00167 29.9893 3.62327 29.1321 2.01624 27.4521C-0.0525494 25.2932 -0.00433868 22.5396 0.00101809 22.2686V22.2504C0.00208944 20.6357 1.352 19.2857 3.02331 19.2857H15.1939C16.8545 19.2857 18.2151 20.6346 18.2151 22.3039V22.3146C18.2194 22.5096 18.2794 25.2825 16.201 27.4629C14.5939 29.1439 12.2155 30 9.1086 30V29.9893ZM3.02331 21.4264C2.5412 21.4264 2.1448 21.8229 2.1448 22.305V22.3114C2.14158 22.4646 2.1148 24.4811 3.58041 25.9971C4.7589 27.2282 6.62306 27.8486 9.1086 27.8486C11.5941 27.8486 13.4476 27.2271 14.6368 25.9971C16.1367 24.4446 16.0831 22.3682 16.0724 22.3468C16.0724 21.8218 15.676 21.4264 15.1939 21.4264H3.02331Z" fill="#C5C5C5"/>
</svg>