<svg width="27" height="27" viewBox="0 0 27 27" fill="none" xmlns="http://www.w3.org/2000/svg">
<g id="heroicons-solid:badge-check">
<path id="Vector" fill-rule="evenodd" clip-rule="evenodd" d="M8.46046 4.66426C9.32886 4.59492 10.1532 4.25336 10.8162 3.68821C11.565 3.05045 12.5164 2.7002 13.5 2.7002C14.4836 2.7002 15.435 3.05045 16.1838 3.68821C16.8468 4.25336 17.6712 4.59492 18.5396 4.66426C19.5202 4.74263 20.4409 5.16776 21.1366 5.86341C21.8323 6.55907 22.2574 7.47977 22.3358 8.46046C22.4046 9.32851 22.7462 10.1534 23.3118 10.8162C23.9496 11.565 24.2998 12.5164 24.2998 13.5C24.2998 14.4836 23.9496 15.435 23.3118 16.1838C22.7467 16.8468 22.4051 17.6712 22.3358 18.5396C22.2574 19.5202 21.8323 20.4409 21.1366 21.1366C20.4409 21.8323 19.5202 22.2574 18.5396 22.3358C17.6712 22.4051 16.8468 22.7467 16.1838 23.3118C15.435 23.9496 14.4836 24.2998 13.5 24.2998C12.5164 24.2998 11.565 23.9496 10.8162 23.3118C10.1532 22.7467 9.32886 22.4051 8.46046 22.3358C7.47977 22.2574 6.55907 21.8323 5.86341 21.1366C5.16776 20.4409 4.74263 19.5202 4.66426 18.5396C4.59492 17.6712 4.25336 16.8468 3.68821 16.1838C3.05045 15.435 2.7002 14.4836 2.7002 13.5C2.7002 12.5164 3.05045 11.565 3.68821 10.8162C4.25336 10.1532 4.59492 9.32886 4.66426 8.46046C4.74263 7.47977 5.16776 6.55907 5.86341 5.86341C6.55907 5.16776 7.47977 4.74263 8.46046 4.66426ZM18.5045 11.7545C18.7504 11.4998 18.8864 11.1588 18.8834 10.8049C18.8803 10.4509 18.7383 10.1123 18.488 9.862C18.2377 9.6117 17.8991 9.46972 17.5451 9.46665C17.1912 9.46357 16.8502 9.59964 16.5956 9.84556L12.15 14.2911L10.4045 12.5456C10.1498 12.2996 9.80883 12.1636 9.45486 12.1666C9.1009 12.1697 8.7623 12.3117 8.512 12.562C8.2617 12.8123 8.11972 13.1509 8.11665 13.5049C8.11357 13.8588 8.24964 14.1998 8.49556 14.4545L11.1956 17.1545C11.4487 17.4075 11.792 17.5497 12.15 17.5497C12.508 17.5497 12.8513 17.4075 13.1045 17.1545L18.5045 11.7545Z" fill="#169C00"/>
</g>
</svg>
