<svg width="56" height="56" viewBox="0 0 56 56" fill="none" xmlns="http://www.w3.org/2000/svg">
<g id="gg:website" clip-path="url(#clip0_3691_132)">
<g id="wysiwyg">
<mask id="mask0_3691_132" style="mask-type:alpha" maskUnits="userSpaceOnUse" x="-2" y="-2" width="60" height="60">
<rect id="Bounding box" x="-2" y="-2" width="60" height="60" fill="#D9D9D9"/>
</mask>
<g mask="url(#mask0_3691_132)">
<path id="wysiwyg_2" d="M11.2693 49.2499C10.0265 49.2499 8.96256 48.8074 8.07756 47.9223C7.19252 47.0373 6.75 45.9734 6.75 44.7306V11.2693C6.75 10.0265 7.19252 8.96256 8.07756 8.07756C8.96256 7.19252 10.0265 6.75 11.2693 6.75H44.7306C45.9734 6.75 47.0373 7.19252 47.9223 8.07756C48.8074 8.96256 49.2499 10.0265 49.2499 11.2693V44.7306C49.2499 45.9734 48.8074 47.0373 47.9223 47.9223C47.0373 48.8074 45.9734 49.2499 44.7306 49.2499H11.2693ZM11.2693 45.4999H44.7306C44.955 45.4999 45.1393 45.4278 45.2836 45.2836C45.4278 45.1393 45.4999 44.955 45.4999 44.7306V15.4999H10.4999V44.7306C10.4999 44.955 10.5721 45.1393 10.7163 45.2836C10.8606 45.4278 11.0449 45.4999 11.2693 45.4999ZM17.3749 27.3749C16.8437 27.3749 16.3984 27.1951 16.039 26.8356C15.6796 26.4761 15.4999 26.0306 15.4999 25.4991C15.4999 24.9676 15.6796 24.5224 16.039 24.1634C16.3984 23.8045 16.8437 23.625 17.3749 23.625H38.625C39.1562 23.625 39.6015 23.8048 39.9609 24.1643C40.3203 24.5238 40.4999 24.9693 40.4999 25.5008C40.4999 26.0323 40.3203 26.4775 39.9609 26.8364C39.6015 27.1954 39.1562 27.3749 38.625 27.3749H17.3749ZM17.3749 37.3749C16.8437 37.3749 16.3984 37.1951 16.039 36.8356C15.6796 36.4761 15.4999 36.0306 15.4999 35.4991C15.4999 34.9676 15.6796 34.5224 16.039 34.1634C16.3984 33.8045 16.8437 33.625 17.3749 33.625H28.625C29.1562 33.625 29.6015 33.8048 29.9609 34.1643C30.3203 34.5238 30.4999 34.9693 30.4999 35.5008C30.4999 36.0323 30.3203 36.4775 29.9609 36.8364C29.6015 37.1954 29.1562 37.3749 28.625 37.3749H17.3749Z" fill="white"/>
</g>
</g>
</g>
<defs>
<clipPath id="clip0_3691_132">
<rect width="56" height="56" fill="white"/>
</clipPath>
</defs>
</svg>
