<svg width="24" height="24" viewBox="0 0 24 24" fill="none" xmlns="http://www.w3.org/2000/svg">
<g id="fe:file-zip">
<path id="Vector" fill-rule="evenodd" clip-rule="evenodd" d="M6 2H16L20 6V20C20 20.5304 19.7893 21.0391 19.4142 21.4142C19.0391 21.7893 18.5304 22 18 22H6C5.46957 22 4.96086 21.7893 4.58579 21.4142C4.21071 21.0391 4 20.5304 4 20V4C4 3.46957 4.21071 2.96086 4.58579 2.58579C4.96086 2.21071 5.46957 2 6 2ZM15.172 4H6V20H18V6.828H15.172V4ZM8 4H10V6H8V4ZM10 6H12V8H10V6ZM8 8H10V10H8V8ZM10 10H12V12H10V10ZM9 14L10 13L11 14V18H9V14Z" fill="#29363D"/>
</g>
</svg>
