<svg width="65" height="65" viewBox="0 0 65 65" fill="none" xmlns="http://www.w3.org/2000/svg">
<g id="zondicons:mobile-devices">
<path id="Vector" d="M55.25 19.5V16.25H48.75V6.5H9.75V52H26V65H36.5625H35.75C34.0261 65 32.3728 64.3152 31.1538 63.0962C29.9348 61.8772 29.25 60.2239 29.25 58.5V26C29.25 24.2761 29.9348 22.6228 31.1538 21.4038C32.3728 20.1848 34.0261 19.5 35.75 19.5H55.25ZM36.5625 65H9.75C8.02609 65 6.37279 64.3152 5.15381 63.0962C3.93482 61.8772 3.25 60.2239 3.25 58.5V6.5C3.25 2.925 6.175 0 9.75 0H48.75C50.4739 0 52.1272 0.68482 53.3462 1.90381C54.5652 3.12279 55.25 4.77609 55.25 6.5V19.5C56.9739 19.5 58.6272 20.1848 59.8462 21.4038C61.0652 22.6228 61.75 24.2761 61.75 26V58.5C61.75 60.2239 61.0652 61.8772 59.8462 63.0962C58.6272 64.3152 56.9739 65 55.25 65H36.5625ZM35.75 26V52H55.25V26H35.75ZM45.5 61.75C46.362 61.75 47.1886 61.4076 47.7981 60.7981C48.4076 60.1886 48.75 59.362 48.75 58.5C48.75 57.638 48.4076 56.8114 47.7981 56.2019C47.1886 55.5924 46.362 55.25 45.5 55.25C44.638 55.25 43.8114 55.5924 43.2019 56.2019C42.5924 56.8114 42.25 57.638 42.25 58.5C42.25 59.362 42.5924 60.1886 43.2019 60.7981C43.8114 61.4076 44.638 61.75 45.5 61.75Z" fill="#707070"/>
</g>
</svg>
